#N canvas 606 39 1019 973 10;
#X obj 1931 837 cnv 15 100 60 empty empty empty 20 12 0 14 -233017
-66577 0;
#X obj 1941 847 cnv 15 100 60 empty empty empty 20 12 0 14 -233017
-66577 0;
#X obj 1951 857 cnv 15 100 60 empty empty empty 20 12 0 14 -233017
-66577 0;
#X obj 1961 867 cnv 15 100 60 empty empty empty 20 12 0 14 -233017
-66577 0;
#X obj 1971 877 cnv 15 100 60 empty empty empty 20 12 0 14 -233017
-66577 0;
#X obj 1981 887 cnv 15 100 60 empty empty empty 20 12 0 14 -233017
-66577 0;
#X obj 1991 897 cnv 15 100 60 empty empty empty 20 12 0 14 -233017
-66577 0;
#X obj 2001 907 cnv 15 100 60 empty empty empty 20 12 0 14 -233017
-66577 0;
#X obj 2011 917 cnv 15 100 60 empty empty empty 20 12 0 14 -233017
-66577 0;
#X obj 264 -2 cnv 15 1900 768 empty empty empty 20 12 0 14 -1 -66577
0;
#X obj 266 0 cnv 15 1896 764 empty empty Synopsie 20 20 0 21 -260714
-66577 0;
#X obj 327 175 bng 32 250 50 0 empty empty empty 0 -6 0 8 -4034 -1
-1;
#N canvas 710 340 450 300 openpanel 0;
#X obj 114 62 inlet;
#X obj 121 254 outlet;
#X obj 114 125 openpanel;
#X msg 114 162 set open \$1;
#X obj 114 199 t b a;
#X obj 244 249 outlet;
#X connect 0 0 2 0;
#X connect 2 0 3 0;
#X connect 2 0 5 0;
#X connect 3 0 4 0;
#X connect 4 0 1 0;
#X connect 4 1 1 0;
#X restore 323 211 pd openpanel;
#X msg 330 237 open /Users/KOAN/Movies/MIX/ MIX/hypnose.mov;
#X obj 307 578 alpha;
#X floatatom 343 648 5 0 0 0 - - -;
#X floatatom 414 684 5 0 0 0 - - -;
#X floatatom 343 613 5 0 0 0 - - -;
#X obj 307 599 color;
#X obj 367 501 vsl 8 50 0 1 0 0 empty empty empty 0 -8 0 8 -258699
-1 -1 4900 1;
#X obj 375 501 vsl 8 50 0 1 0 0 empty empty empty 0 -8 0 8 -24198 -1
-1 4900 1;
#X obj 383 501 vsl 8 50 0 1 0 0 empty empty empty 0 -8 0 8 -355 -1
-1 4900 1;
#X obj 391 501 vsl 8 50 0 1 0 0 empty empty empty 0 -8 0 8 -195568
-1 -1 4900 1;
#N canvas 0 22 452 302 color 0;
#X obj 44 212 pack f f f f;
#X msg 44 236 \$1 \$2 \$3 \$4;
#X obj 26 145 bng 15 250 50 0 empty empty empty 0 -6 0 8 -262144 -1
-1;
#X obj 41 144 t b f;
#X obj 41 35 vsl 8 50 0 1 0 0 empty empty empty 0 -8 0 8 -258699 -1
-1 4900 1;
#X obj 49 35 vsl 8 50 0 1 0 0 empty empty empty 0 -8 0 8 -24198 -1
-1 4900 1;
#X obj 57 35 vsl 8 50 0 1 0 0 empty empty empty 0 -8 0 8 -355 -1 -1
4900 1;
#X obj 65 35 vsl 8 50 0 1 0 0 empty empty empty 0 -8 0 8 -195568 -1
-1 4900 1;
#X obj 63 167 t b f;
#X obj 86 189 t b f;
#X floatatom 77 86 5 0 0 0 - - -;
#X floatatom 67 101 5 0 0 0 - - -;
#X floatatom 53 115 5 0 0 0 - - -;
#X floatatom 35 129 5 0 0 0 - - -;
#X obj 17 7 inlet;
#X obj 52 7 inlet;
#X obj 87 7 inlet;
#X obj 122 8 inlet;
#X obj 44 261 outlet;
#X connect 0 0 1 0;
#X connect 1 0 18 0;
#X connect 2 0 0 0;
#X connect 3 0 0 0;
#X connect 3 1 0 1;
#X connect 4 0 0 0;
#X connect 4 0 13 0;
#X connect 5 0 3 0;
#X connect 5 0 12 0;
#X connect 6 0 8 0;
#X connect 6 0 11 0;
#X connect 7 0 9 0;
#X connect 7 0 10 0;
#X connect 8 0 0 0;
#X connect 8 1 0 2;
#X connect 9 0 0 0;
#X connect 9 1 0 3;
#X connect 14 0 4 0;
#X connect 15 0 5 0;
#X connect 16 0 6 0;
#X connect 17 0 7 0;
#X restore 358 561 pd color;
#X floatatom 385 363 5 0 0 0 - - -;
#X obj 307 680 pix_texture;
#X msg 314 521 1 1 1 1;
#X floatatom 426 363 5 0 0 0 - - -;
#X floatatom 345 363 5 0 0 0 - - -;
#X floatatom 369 323 5 0 0 0 - - -;
#X floatatom 404 323 5 0 0 0 - - -;
#X floatatom 335 323 5 0 0 0 - - -;
#X obj 307 340 rotateXYZ 0 0 0;
#X obj 380 589 loadbang;
#X obj 377 433 loadbang;
#X msg 377 452 1;
#X obj 307 705 rectangle 5.334 4;
#X obj 307 126 tgl 19 0 empty empty Gem 0 -6 0 8 -258699 -1 -1 0 1
;
#N canvas 710 340 450 300 openpanel 0;
#X obj 114 62 inlet;
#X obj 121 254 outlet;
#X obj 114 125 openpanel;
#X msg 114 162 set open \$1;
#X obj 114 199 t b a;
#X obj 191 254 outlet;
#X connect 0 0 2 0;
#X connect 2 0 3 0;
#X connect 2 0 5 0;
#X connect 3 0 4 0;
#X connect 4 0 1 0;
#X connect 4 1 1 0;
#X restore 841 213 pd openpanel;
#X obj 825 580 alpha;
#X floatatom 861 650 5 0 0 0 - - -;
#X floatatom 904 684 5 0 0 0 - - -;
#X floatatom 861 615 5 0 0 0 - - -;
#X obj 825 601 color;
#X obj 885 503 vsl 8 50 0 1 0 0 empty empty empty 0 -8 0 8 -258699
-1 -1 4900 1;
#X obj 893 503 vsl 8 50 0 1 0 0 empty empty empty 0 -8 0 8 -24198 -1
-1 4900 1;
#X obj 901 503 vsl 8 50 0 1 0 0 empty empty empty 0 -8 0 8 -355 -1
-1 4900 1;
#X obj 909 503 vsl 8 50 0 1 0 0 empty empty empty 0 -8 0 8 -195568
-1 -1 0 1;
#N canvas 0 22 452 302 color 0;
#X obj 44 212 pack f f f f;
#X msg 44 236 \$1 \$2 \$3 \$4;
#X obj 26 145 bng 15 250 50 0 empty empty empty 0 -6 0 8 -262144 -1
-1;
#X obj 41 144 t b f;
#X obj 41 35 vsl 8 50 0 1 0 0 empty empty empty 0 -8 0 8 -258699 -1
-1 4900 1;
#X obj 49 35 vsl 8 50 0 1 0 0 empty empty empty 0 -8 0 8 -24198 -1
-1 4900 1;
#X obj 57 35 vsl 8 50 0 1 0 0 empty empty empty 0 -8 0 8 -355 -1 -1
4900 1;
#X obj 65 35 vsl 8 50 0 1 0 0 empty empty empty 0 -8 0 8 -195568 -1
-1 0 1;
#X obj 63 167 t b f;
#X obj 86 189 t b f;
#X floatatom 77 86 5 0 0 0 - - -;
#X floatatom 67 101 5 0 0 0 - - -;
#X floatatom 53 115 5 0 0 0 - - -;
#X floatatom 35 129 5 0 0 0 - - -;
#X obj 17 7 inlet;
#X obj 52 7 inlet;
#X obj 87 7 inlet;
#X obj 122 8 inlet;
#X obj 44 261 outlet;
#X connect 0 0 1 0;
#X connect 1 0 18 0;
#X connect 2 0 0 0;
#X connect 3 0 0 0;
#X connect 3 1 0 1;
#X connect 4 0 0 0;
#X connect 4 0 13 0;
#X connect 5 0 3 0;
#X connect 5 0 12 0;
#X connect 6 0 8 0;
#X connect 6 0 11 0;
#X connect 7 0 9 0;
#X connect 7 0 10 0;
#X connect 8 0 0 0;
#X connect 8 1 0 2;
#X connect 9 0 0 0;
#X connect 9 1 0 3;
#X connect 14 0 4 0;
#X connect 15 0 5 0;
#X connect 16 0 6 0;
#X connect 17 0 7 0;
#X restore 876 563 pd color;
#X obj 825 682 pix_texture;
#X msg 832 523 1 1 1 1;
#X obj 895 435 loadbang;
#X msg 895 454 1;
#X obj 825 707 rectangle 5.334 4;
#X obj 825 129 tgl 19 0 empty empty Gem 0 -6 0 8 -258699 -1 -1 0 1
;
#X obj 563 767 cnv 15 390 200 empty empty Affichage 20 12 0 14 -195568
-66577 0;
#N canvas 103 419 706 556 Gestion_Affichage 0;
#N canvas 208 317 558 738 GemWin_Benj 0;
#X msg 75 111 create \, 1;
#X msg 61 54 stereo 2;
#X msg 53 34 border 0;
#X msg -35 95 dimen 800 600;
#X msg -35 112 offset 0 0;
#X msg -35 130 dimen 400 300;
#X msg -35 148 fullscreen 1;
#X msg -35 77 offset 1024 0;
#X msg -35 166 fullscreen 0;
#X msg -35 184 lighting 1;
#X msg -35 201 lighting 0;
#X msg -36 215 dimen 200 150;
#X msg -35 235 cursor 0;
#X msg -35 253 cursor 1;
#X msg 62 77 stereo 0;
#X msg 74 132 destroy \, 0;
#X msg 55 151 dimen 1024 768;
#X msg -35 272 dimen 1024 768;
#X obj 126 11 inlet;
#X obj 150 77 key;
#X obj 150 117 bng 15 250 50 0 empty empty empty 0 -6 0 8 -262144 -1
-1;
#X msg -31 34 border 1;
#X obj 150 97 select 27;
#X obj 131 536 gemwin 25;
#X obj 131 450 t a;
#X obj 152 482 route dimen;
#X obj 152 504 s dimengemwin;
#X connect 0 0 24 0;
#X connect 1 0 24 0;
#X connect 2 0 24 0;
#X connect 3 0 24 0;
#X connect 4 0 24 0;
#X connect 5 0 24 0;
#X connect 6 0 24 0;
#X connect 7 0 24 0;
#X connect 8 0 24 0;
#X connect 9 0 24 0;
#X connect 10 0 24 0;
#X connect 11 0 24 0;
#X connect 12 0 24 0;
#X connect 13 0 24 0;
#X connect 14 0 24 0;
#X connect 15 0 24 0;
#X connect 16 0 24 0;
#X connect 17 0 24 0;
#X connect 18 0 24 0;
#X connect 19 0 22 0;
#X connect 20 0 15 0;
#X connect 21 0 24 0;
#X connect 22 0 20 0;
#X connect 24 0 23 0;
#X connect 24 0 25 0;
#X connect 25 0 26 0;
#X restore -39 235 pd GemWin_Benj;
#X msg 133 97 create \, 1;
#X msg -39 10 dimen 400 300;
#X msg -39 -23 dimen 1024 768;
#X msg -39 76 offset 1024 0;
#X msg -39 116 cursor 0;
#X msg -39 156 view 4 0 0 0 0 0 0 1 0;
#X msg 134 122 destroy \, 0;
#X msg -39 43 offset 1280 0;
#X msg -39 93 offset 0 0;
#X obj 124 158 vsl 8 50 0 1 0 0 empty empty empty 0 -8 0 8 -258699
-1 -1 4900 1;
#X obj 132 158 vsl 8 50 0 1 0 0 empty empty empty 0 -8 0 8 -24198 -1
-1 0 1;
#X obj 140 158 vsl 8 50 0 1 0 0 empty empty empty 0 -8 0 8 -355 -1
-1 0 1;
#N canvas 0 50 466 316 colgem 0;
#X obj 26 145 bng 15 250 50 0 empty empty empty 0 -6 0 8 -262144 -1
-1;
#X obj 41 144 t b f;
#X obj 41 35 vsl 8 50 0 1 0 0 empty empty empty 0 -8 0 8 -258699 -1
-1 4900 1;
#X obj 49 35 vsl 8 50 0 1 0 0 empty empty empty 0 -8 0 8 -24198 -1
-1 0 1;
#X obj 57 35 vsl 8 50 0 1 0 0 empty empty empty 0 -8 0 8 -355 -1 -1
0 1;
#X obj 63 167 t b f;
#X floatatom 67 101 5 0 0 0 - - -;
#X floatatom 53 115 5 0 0 0 - - -;
#X floatatom 35 129 5 0 0 0 - - -;
#X obj 17 7 inlet;
#X obj 52 7 inlet;
#X obj 87 7 inlet;
#X obj 44 261 outlet;
#X obj 44 212 pack f f f;
#X msg 44 236 color \$1 \$2 \$3;
#X connect 0 0 13 0;
#X connect 1 0 13 0;
#X connect 1 1 13 1;
#X connect 2 0 8 0;
#X connect 2 0 13 0;
#X connect 3 0 1 0;
#X connect 3 0 7 0;
#X connect 4 0 5 0;
#X connect 4 0 6 0;
#X connect 5 0 13 0;
#X connect 5 1 13 2;
#X connect 9 0 2 0;
#X connect 10 0 3 0;
#X connect 11 0 4 0;
#X connect 13 0 14 0;
#X connect 14 0 12 0;
#X restore 115 218 pd colgem;
#X msg -39 173 view 0 4 0 0 0 0 0 1 0;
#X msg -39 133 cursor 1;
#X msg -39 59 offset 1680 0;
#X obj 115 -14 inlet;
#X obj 115 64 t b b b b;
#X obj 115 23 select 1;
#X msg -40 -6 dimen 1280 1024;
#X obj 231 99 t b b;
#X msg -40 190 view 0 0 4 0 0 0 0 1 0;
#X text 8 208 default;
#X msg -40 26 dimen 800 600;
#X msg 111 250 border 1;
#X msg 6 267 offset 0 0;
#X msg 4 284 dimen 800 600;
#X msg 5 307 border 1;
#X obj 196 190 t a;
#X obj 196 143 loadbang;
#X obj 382 35 gemkeyboard;
#X floatatom 382 73 5 0 0 1 keyCode - -;
#X obj 382 94 sel 9;
#X msg 271 167 dimen 1920 1080 \, border 0 \, title CYBERLAPSUS \,
topmost 1 \, cursor 0 \, create \, 1;
#X obj 545 34 key;
#X floatatom 545 62 5 0 0 1 keyCode - -;
#X obj 545 83 sel 27;
#X msg 274 350 dimen 1280 480 \, border 1 \, offset 0 0 \, cursor 0
\, create \, 1;
#X msg 196 165 0;
#X msg 265 397 dimen 2560 960 \, border 1 \, offset 0 0 \, cursor 0
\, create \, 1;
#X msg 114 495 dimen 2048 768 \, border 0 \, offset 1920 0 \, cursor
0 \, create \, 1;
#X msg 211 457 dimen 2560 1024 \, border 0 \, offset 1920 0 \, cursor
0 \, topmost 1 \, create \, 1;
#X msg 272 194 dimen 800 600 \, border 1 \, title CYBERLAPSUS \, cursor
1 \, create \, 1;
#X msg 264 239 dimen 960 540 \, border 1 \, offset 0 0 \, cursor 0
\, create \, 1;
#X connect 1 0 0 0;
#X connect 2 0 0 0;
#X connect 3 0 0 0;
#X connect 4 0 0 0;
#X connect 5 0 0 0;
#X connect 6 0 0 0;
#X connect 7 0 0 0;
#X connect 8 0 0 0;
#X connect 9 0 0 0;
#X connect 10 0 13 0;
#X connect 11 0 13 1;
#X connect 12 0 13 2;
#X connect 13 0 0 0;
#X connect 14 0 0 0;
#X connect 15 0 0 0;
#X connect 16 0 0 0;
#X connect 17 0 19 0;
#X connect 18 3 44 0;
#X connect 19 0 18 0;
#X connect 19 1 21 0;
#X connect 20 0 0 0;
#X connect 21 0 7 0;
#X connect 21 1 7 0;
#X connect 22 0 0 0;
#X connect 24 0 0 0;
#X connect 25 0 0 0;
#X connect 26 0 0 0;
#X connect 27 0 0 0;
#X connect 28 0 0 0;
#X connect 29 0 10 0;
#X connect 29 0 11 0;
#X connect 29 0 12 0;
#X connect 30 0 39 0;
#X connect 31 0 32 0;
#X connect 32 0 33 0;
#X connect 33 0 7 0;
#X connect 34 0 0 0;
#X connect 35 0 36 0;
#X connect 36 0 37 0;
#X connect 37 0 7 0;
#X connect 38 0 0 0;
#X connect 39 0 29 0;
#X connect 40 0 0 0;
#X connect 41 0 0 0;
#X connect 42 0 0 0;
#X connect 43 0 0 0;
#X connect 44 0 0 0;
#X restore 674 889 pd Gestion_Affichage;
#X obj 674 854 tgl 29 0 empty empty Affichage-ON_OFF 0 -6 0 8 -24198
-258699 -1 1 1;
#N canvas 254 209 1029 711 playlist_maker 0;
#X symbolatom 88 396 50 0 0 0 - - -;
#X msg 179 36 seek \$1;
#X floatatom 241 38 5 0 0 0 - - -;
#X symbolatom 210 423 50 0 0 0 - - -;
#X symbolatom 256 450 50 0 0 0 - - -;
#X msg 140 65 sort \$1;
#X obj 201 66 tgl 15 0 empty empty empty 0 -6 0 8 -262144 -1 -1 0 1
;
#X obj 35 72 loadbang;
#X msg 185 122 scroll 200;
#X msg 35 97 location /media/Docs/Vid_gnirut-test/bacteria;
#X obj -112 663 print done;
#X msg -114 465 bang;
#X obj -151 627 msgfile;
#N canvas 585 487 646 300 navigation 0;
#X obj 54 272 outlet;
#X msg 91 140 rewind;
#X text 140 139 go to beginning;
#X msg 92 163 end;
#X text 139 163 go the the end;
#X msg 92 214 skip -1;
#X msg 92 238 where;
#X text 145 237 where are we now ?;
#X text 146 214 go to the <n>th line from here;
#X text 142 188 go to line number <n>;
#X text 44 38 navigating through the lines of a [msgfile];
#X text 42 62 these messages will not output any data;
#X text 41 80 'where' will output the position of the "cursor" at the
2nd outlet of [msgfile];
#X msg 92 189 goto 8;
#X connect 1 0 0 0;
#X connect 3 0 0 0;
#X connect 5 0 0 0;
#X connect 6 0 0 0;
#X connect 13 0 0 0;
#X restore -114 510 pd navigation;
#N canvas 0 22 458 426 data 0;
#X obj 54 332 outlet;
#X msg 105 143 bang;
#X msg 103 231 next;
#X msg 102 189 prev;
#X msg 103 210 this;
#X text 154 140 output one line as a list and move to the next;
#X text 151 189 output the previous line;
#X text 153 229 output the next line;
#X text 151 209 output the current line;
#X msg 104 264 flush;
#X text 153 263 output all lines;
#X text 39 37 get the contents of the [msgfile] line-by-line;
#X text 37 63 'prev' \, 'this' \, 'next' and 'flush' will not alter
the current "cursor" position.;
#X connect 1 0 0 0;
#X connect 2 0 0 0;
#X connect 3 0 0 0;
#X connect 4 0 0 0;
#X connect 9 0 0 0;
#X restore -114 490 pd data retrieval;
#N canvas 489 234 669 573 editing 0;
#X obj 54 512 outlet;
#X msg 137 101 clear;
#X msg 140 481 set 2 4 6 8;
#X text 246 480 clear and then add one message;
#X msg 136 258 add cis boom bah;
#X msg 136 277 add2 bang;
#X text 190 102 empty the object;
#X msg 137 161 delete 2;
#X text 272 303 insert a message before the current line;
#X text 238 255 add a message at the end of the object;
#X msg 137 359 append after the break of dawn;
#X text 331 356 add a message at the current position;
#X msg 138 437 replace the new day;
#X text 330 437 replace the current line;
#X msg 136 306 insert before sunrise;
#X msg 136 325 insert2 inserted;
#X msg 137 378 append2 appendix;
#X msg 137 141 delete;
#X text 191 142 delete the current line;
#X text 194 161 delete the specified line;
#X msg 137 180 delete 4 7;
#X text 205 181 delete the specified region;
#X msg 137 200 delete 7 4;
#X text 208 200 delete all but the specified region;
#X text 56 39 editing (adding \, modifying \, deleting) the content
if the [msgfile];
#X text 237 275 add to the last line (INCOMPATIBLE with [textfile])
;
#X text 275 325 add to the previous line (INCOMPATIBLE with [textfile])
;
#X text 330 379 add to the current line (INCOMPATIBLE with [textfile])
;
#X connect 1 0 0 0;
#X connect 2 0 0 0;
#X connect 4 0 0 0;
#X connect 5 0 0 0;
#X connect 7 0 0 0;
#X connect 10 0 0 0;
#X connect 12 0 0 0;
#X connect 14 0 0 0;
#X connect 15 0 0 0;
#X connect 16 0 0 0;
#X connect 17 0 0 0;
#X connect 20 0 0 0;
#X connect 22 0 0 0;
#X restore -114 530 pd editing;
#N canvas 0 22 676 304 searching 0;
#X obj 54 272 outlet;
#X msg 70 180 find test 6;
#X msg 70 239 find test * 7 *;
#X text 73 61 searching (and finding) lines within the [msgfile];
#X text 177 241 you can use '*' as a wildchard for a single atom. '*'
is the only wildcard supported;
#X text 174 178 find a matching list \, starting at the current position
;
#X msg 72 208 find the new day;
#X text 76 130 if the search fails \, a 'bang' is emitted at the 2nd
outlet;
#X text 77 99 if the searched list is found \, then the linenumber
and the list is output (via the 2nd and 1st outlet).;
#X connect 1 0 0 0;
#X connect 2 0 0 0;
#X connect 6 0 0 0;
#X restore -114 550 pd searching;
#N canvas 575 306 853 402 file-i/o 0;
#X obj 54 312 outlet;
#X text 265 75 read a file;
#X text 299 96 write one;
#X text 305 164 write a file \, terminating lines only with carriage
return (omitting semicolons.) You can read files this way too \, in
which case carriage returns are mapped to semicolons.;
#X msg 87 76 read msgfile.txt;
#X msg 87 168 write /tmp/msgfile2.txt cr;
#X msg 87 191 read msgfile2.txt cr;
#X msg 87 97 write /tmp/msgfile.txt;
#X text 51 26 reading from and writing the contents of [msgfile] to
files;
#X msg 111 248 write /tmp/msgfile3.txt $$;
#X text 331 238 on writing replace every occurence of $$ with a single
$. This way you can write pd-patches which can handle arguments.;
#X msg 146 291 add #X obj f $\$1;
#X msg 92 130 read2 msgfile.txt;
#X text 264 131 read file and append it to the current buffer;
#X connect 4 0 0 0;
#X connect 5 0 0 0;
#X connect 6 0 0 0;
#X connect 7 0 0 0;
#X connect 9 0 0 0;
#X connect 11 0 0 0;
#X connect 12 0 0 0;
#X restore -114 570 pd file-i/o;
#N canvas 56 448 450 397 misc 0;
#X obj 84 282 outlet;
#X msg 84 112 print;
#X text 40 72 miscellaneous functionality of [msgfile];
#X text 126 114 debugging printout of the contents to the console;
#X connect 1 0 0 0;
#X restore -114 590 pd misc;
#X obj -151 693 print dataTXT;
#X obj 224 523 list2symbol;
#X text -183 450 clear;
#X obj 185 551 symbol;
#X msg 65 585 add \$1;
#X msg -190 414 write \$1 cr;
#X obj -190 373 savepanel;
#X obj -190 338 bng 29 250 50 0 empty empty empty 17 7 0 10 -258113
-4034 -1;
#X msg -174 469 clear;
#X msg 30 432 delete;
#X msg 356 64 location /media/OiO_/VIDEO/MIX_VID/vid28/From~stueber_haeckel
;
#X msg 365 106 location /media/OiO_/VIDEO/MIX_VID/Vid22F/digitalglobe
;
#X obj -190 312 inlet;
#X obj 20 631 outlet;
#X obj 88 321 inlet;
#X connect 0 0 23 0;
#X connect 2 0 1 0;
#X connect 6 0 5 0;
#X connect 7 0 9 0;
#X connect 11 0 12 0;
#X connect 12 0 19 0;
#X connect 12 1 10 0;
#X connect 13 0 12 0;
#X connect 14 0 12 0;
#X connect 15 0 12 0;
#X connect 16 0 12 0;
#X connect 17 0 12 0;
#X connect 18 0 12 0;
#X connect 20 0 22 1;
#X connect 22 0 23 0;
#X connect 23 0 12 0;
#X connect 24 0 12 0;
#X connect 25 0 24 0;
#X connect 25 0 32 0;
#X connect 26 0 25 0;
#X connect 27 0 12 0;
#X connect 28 0 12 0;
#X connect 31 0 26 0;
#X connect 33 0 0 0;
#X restore 312 826 pd playlist_maker;
#N canvas 648 202 1029 711 playlist_player 0;
#X symbolatom 169 396 50 0 0 0 - - -;
#X msg 179 36 seek \$1;
#X floatatom 241 38 5 0 0 0 - - -;
#X symbolatom 210 423 50 0 0 0 - - -;
#X symbolatom 256 450 50 0 0 0 - - -;
#X msg 140 65 sort \$1;
#X obj 201 66 tgl 15 0 empty empty empty 0 -6 0 8 -262144 -1 -1 0 1
;
#X obj 35 72 loadbang;
#X msg 185 122 scroll 200;
#X msg -114 465 bang;
#X obj -151 627 msgfile;
#N canvas 76 237 646 300 navigation 0;
#X obj 54 272 outlet;
#X msg 91 140 rewind;
#X text 140 139 go to beginning;
#X msg 92 163 end;
#X text 139 163 go the the end;
#X msg 92 214 skip -1;
#X msg 92 238 where;
#X text 145 237 where are we now ?;
#X text 146 214 go to the <n>th line from here;
#X text 142 188 go to line number <n>;
#X text 44 38 navigating through the lines of a [msgfile];
#X text 42 62 these messages will not output any data;
#X text 41 96 'where' will output the position of the "cursor" at the
2nd outlet of [msgfile];
#X msg 92 189 goto 8;
#X connect 1 0 0 0;
#X connect 3 0 0 0;
#X connect 5 0 0 0;
#X connect 6 0 0 0;
#X connect 13 0 0 0;
#X restore -114 510 pd navigation;
#N canvas 707 298 458 426 data 0;
#X obj 54 332 outlet;
#X msg 105 143 bang;
#X msg 103 231 next;
#X msg 102 189 prev;
#X msg 103 210 this;
#X text 154 140 output one line as a list and move to the next;
#X text 151 189 output the previous line;
#X text 153 229 output the next line;
#X text 151 209 output the current line;
#X msg 104 264 flush;
#X text 153 263 output all lines;
#X text 39 37 get the contents of the [msgfile] line-by-line;
#X text 37 63 'prev' \, 'this' \, 'next' and 'flush' will not alter
the current "cursor" position.;
#X connect 1 0 0 0;
#X connect 2 0 0 0;
#X connect 3 0 0 0;
#X connect 4 0 0 0;
#X connect 9 0 0 0;
#X restore -114 490 pd data retrieval;
#N canvas 489 234 669 573 editing 0;
#X obj 54 512 outlet;
#X msg 137 101 clear;
#X msg 140 481 set 2 4 6 8;
#X text 246 480 clear and then add one message;
#X msg 136 258 add cis boom bah;
#X msg 136 277 add2 bang;
#X text 190 102 empty the object;
#X msg 137 161 delete 2;
#X text 272 303 insert a message before the current line;
#X text 238 255 add a message at the end of the object;
#X msg 137 359 append after the break of dawn;
#X text 331 356 add a message at the current position;
#X msg 138 437 replace the new day;
#X text 330 437 replace the current line;
#X msg 136 306 insert before sunrise;
#X msg 136 325 insert2 inserted;
#X msg 137 378 append2 appendix;
#X msg 137 141 delete;
#X text 191 142 delete the current line;
#X text 194 161 delete the specified line;
#X msg 137 180 delete 4 7;
#X text 205 181 delete the specified region;
#X msg 137 200 delete 7 4;
#X text 208 200 delete all but the specified region;
#X text 56 39 editing (adding \, modifying \, deleting) the content
if the [msgfile];
#X text 237 275 add to the last line (INCOMPATIBLE with [textfile])
;
#X text 275 325 add to the previous line (INCOMPATIBLE with [textfile])
;
#X text 330 379 add to the current line (INCOMPATIBLE with [textfile])
;
#X connect 1 0 0 0;
#X connect 2 0 0 0;
#X connect 4 0 0 0;
#X connect 5 0 0 0;
#X connect 7 0 0 0;
#X connect 10 0 0 0;
#X connect 12 0 0 0;
#X connect 14 0 0 0;
#X connect 15 0 0 0;
#X connect 16 0 0 0;
#X connect 17 0 0 0;
#X connect 20 0 0 0;
#X connect 22 0 0 0;
#X restore -114 530 pd editing;
#N canvas 0 22 676 304 searching 0;
#X obj 54 272 outlet;
#X msg 70 180 find test 6;
#X msg 70 239 find test * 7 *;
#X text 73 61 searching (and finding) lines within the [msgfile];
#X text 177 241 you can use '*' as a wildchard for a single atom. '*'
is the only wildcard supported;
#X text 174 178 find a matching list \, starting at the current position
;
#X msg 72 208 find the new day;
#X text 76 130 if the search fails \, a 'bang' is emitted at the 2nd
outlet;
#X text 77 99 if the searched list is found \, then the linenumber
and the list is output (via the 2nd and 1st outlet).;
#X connect 1 0 0 0;
#X connect 2 0 0 0;
#X connect 6 0 0 0;
#X restore -114 550 pd searching;
#N canvas 575 306 853 402 file-i/o 0;
#X obj 54 312 outlet;
#X text 265 75 read a file;
#X text 299 96 write one;
#X text 305 164 write a file \, terminating lines only with carriage
return (omitting semicolons.) You can read files this way too \, in
which case carriage returns are mapped to semicolons.;
#X msg 87 76 read msgfile.txt;
#X msg 87 168 write /tmp/msgfile2.txt cr;
#X msg 87 191 read msgfile2.txt cr;
#X msg 87 97 write /tmp/msgfile.txt;
#X text 51 26 reading from and writing the contents of [msgfile] to
files;
#X msg 111 248 write /tmp/msgfile3.txt $$;
#X text 331 238 on writing replace every occurence of $$ with a single
$. This way you can write pd-patches which can handle arguments.;
#X msg 146 291 add #X obj f $\$1;
#X msg 92 130 read2 msgfile.txt;
#X text 264 131 read file and append it to the current buffer;
#X connect 4 0 0 0;
#X connect 5 0 0 0;
#X connect 6 0 0 0;
#X connect 7 0 0 0;
#X connect 9 0 0 0;
#X connect 11 0 0 0;
#X connect 12 0 0 0;
#X restore -114 570 pd file-i/o;
#N canvas 56 448 450 397 misc 0;
#X obj 84 282 outlet;
#X msg 84 112 print;
#X text 40 72 miscellaneous functionality of [msgfile];
#X text 126 114 debugging printout of the contents to the console;
#X connect 1 0 0 0;
#X restore -114 590 pd misc;
#X obj 224 523 list2symbol;
#X text -183 450 clear;
#X obj 185 551 symbol;
#X obj -190 338 bng 29 250 50 0 empty empty empty 17 7 0 10 -258113
-4034 -1;
#X msg -174 469 clear;
#X msg 30 432 delete;
#X msg -125 125 location /media/Docs/Vid_gnirut-test/bacteria;
#X msg 109 629 read \$1 cr;
#X msg 65 585 read \$1 cr;
#X obj -190 373 openpanel;
#X msg -190 414 read \$1 cr;
#X msg 35 97 location /media/Docs/Vid_gnirut-test/patch/playlist;
#X msg 17 656 rewind;
#X obj -102 308 metro 15000;
#X obj -102 253 tgl 29 0 empty empty empty 17 7 0 10 -204786 -258113
-1 0 1;
#X obj -101 339 bng 15 250 50 0 empty empty empty 17 7 0 10 -262144
-1 -1;
#X obj -23 631 t b b;
#X msg -23 653 bang;
#X obj 16 595 t b a;
#X msg 18 618 rewind;
#X obj -187 238 inlet;
#X obj -100 220 inlet;
#X obj -38 220 inlet;
#X obj -39 282 * 1000;
#X floatatom -37 252 5 0 0 0 - - -;
#X obj 194 484 outlet;
#X obj -151 689 outlet;
#X obj -112 663 print playlistdone;
#X obj -82 285 inlet;
#X msg 39 311 next;
#X msg 38 269 prev;
#X obj 24 219 inlet;
#X obj 126 215 loadbang;
#X msg 126 248 read /media/Docs/ELODIE_Chant/patch_pd/JardinD.txt cr
;
#X connect 0 0 25 0;
#X connect 2 0 1 0;
#X connect 3 0 42 0;
#X connect 6 0 5 0;
#X connect 7 0 28 0;
#X connect 9 0 10 0;
#X connect 10 0 43 0;
#X connect 10 1 33 0;
#X connect 10 1 44 0;
#X connect 11 0 10 0;
#X connect 12 0 10 0;
#X connect 13 0 10 0;
#X connect 14 0 10 0;
#X connect 15 0 10 0;
#X connect 16 0 10 0;
#X connect 17 0 19 1;
#X connect 19 0 25 0;
#X connect 20 0 26 0;
#X connect 21 0 10 0;
#X connect 22 0 10 0;
#X connect 25 0 35 0;
#X connect 26 0 27 0;
#X connect 27 0 10 0;
#X connect 29 0 10 0;
#X connect 30 0 32 0;
#X connect 31 0 30 0;
#X connect 32 0 9 0;
#X connect 33 0 34 0;
#X connect 33 1 29 0;
#X connect 34 0 10 0;
#X connect 35 0 36 0;
#X connect 35 1 10 0;
#X connect 36 0 10 0;
#X connect 37 0 20 0;
#X connect 38 0 31 0;
#X connect 39 0 41 0;
#X connect 40 0 30 1;
#X connect 41 0 40 0;
#X connect 45 0 32 0;
#X connect 46 0 10 0;
#X connect 47 0 10 0;
#X connect 48 0 10 0;
#X connect 49 0 50 0;
#X connect 50 0 10 0;
#X restore 889 58 pd playlist_player;
#X obj 889 35 bng 15 250 50 0 empty empty Load 17 7 0 10 -258113 -4034
-1;
#X obj 941 20 tgl 29 0 empty empty empty 17 7 0 10 -204786 -258113
-1 0 1;
#X floatatom 1006 19 5 0 0 0 - - -;
#X text 1046 21 duree (s);
#X obj 905 82 print dataTXT;
#X msg 891 151 open \$1;
#X obj 976 30 bng 15 250 50 0 empty empty empty 17 7 0 10 -262144 -1
-1;
#X symbolatom 312 849 50 0 0 0 - - -;
#X obj 312 791 bng 29 250 50 0 empty empty empty 17 7 0 10 -258113
-4034 -1;
#X symbolatom 891 110 64 0 0 0 - - -;
#N canvas 254 209 1029 711 playlist_maker 0;
#X symbolatom 88 396 50 0 0 0 - - -;
#X msg 179 36 seek \$1;
#X floatatom 241 38 5 0 0 0 - - -;
#X symbolatom 210 423 50 0 0 0 - - -;
#X symbolatom 256 450 50 0 0 0 - - -;
#X msg 140 65 sort \$1;
#X obj 201 66 tgl 15 0 empty empty empty 0 -6 0 8 -262144 -1 -1 0 1
;
#X obj 35 72 loadbang;
#X msg 185 122 scroll 200;
#X msg 35 97 location /media/Docs/Vid_gnirut-test/bacteria;
#X obj -112 663 print done;
#X msg -114 465 bang;
#X obj -151 627 msgfile;
#N canvas 585 487 646 300 navigation 0;
#X obj 54 272 outlet;
#X msg 91 140 rewind;
#X text 140 139 go to beginning;
#X msg 92 163 end;
#X text 139 163 go the the end;
#X msg 92 214 skip -1;
#X msg 92 238 where;
#X text 145 237 where are we now ?;
#X text 146 214 go to the <n>th line from here;
#X text 142 188 go to line number <n>;
#X text 44 38 navigating through the lines of a [msgfile];
#X text 42 62 these messages will not output any data;
#X text 41 80 'where' will output the position of the "cursor" at the
2nd outlet of [msgfile];
#X msg 92 189 goto 8;
#X connect 1 0 0 0;
#X connect 3 0 0 0;
#X connect 5 0 0 0;
#X connect 6 0 0 0;
#X connect 13 0 0 0;
#X restore -114 510 pd navigation;
#N canvas 0 22 458 426 data 0;
#X obj 54 332 outlet;
#X msg 105 143 bang;
#X msg 103 231 next;
#X msg 102 189 prev;
#X msg 103 210 this;
#X text 154 140 output one line as a list and move to the next;
#X text 151 189 output the previous line;
#X text 153 229 output the next line;
#X text 151 209 output the current line;
#X msg 104 264 flush;
#X text 153 263 output all lines;
#X text 39 37 get the contents of the [msgfile] line-by-line;
#X text 37 63 'prev' \, 'this' \, 'next' and 'flush' will not alter
the current "cursor" position.;
#X connect 1 0 0 0;
#X connect 2 0 0 0;
#X connect 3 0 0 0;
#X connect 4 0 0 0;
#X connect 9 0 0 0;
#X restore -114 490 pd data retrieval;
#N canvas 489 234 669 573 editing 0;
#X obj 54 512 outlet;
#X msg 137 101 clear;
#X msg 140 481 set 2 4 6 8;
#X text 246 480 clear and then add one message;
#X msg 136 258 add cis boom bah;
#X msg 136 277 add2 bang;
#X text 190 102 empty the object;
#X msg 137 161 delete 2;
#X text 272 303 insert a message before the current line;
#X text 238 255 add a message at the end of the object;
#X msg 137 359 append after the break of dawn;
#X text 331 356 add a message at the current position;
#X msg 138 437 replace the new day;
#X text 330 437 replace the current line;
#X msg 136 306 insert before sunrise;
#X msg 136 325 insert2 inserted;
#X msg 137 378 append2 appendix;
#X msg 137 141 delete;
#X text 191 142 delete the current line;
#X text 194 161 delete the specified line;
#X msg 137 180 delete 4 7;
#X text 205 181 delete the specified region;
#X msg 137 200 delete 7 4;
#X text 208 200 delete all but the specified region;
#X text 56 39 editing (adding \, modifying \, deleting) the content
if the [msgfile];
#X text 237 275 add to the last line (INCOMPATIBLE with [textfile])
;
#X text 275 325 add to the previous line (INCOMPATIBLE with [textfile])
;
#X text 330 379 add to the current line (INCOMPATIBLE with [textfile])
;
#X connect 1 0 0 0;
#X connect 2 0 0 0;
#X connect 4 0 0 0;
#X connect 5 0 0 0;
#X connect 7 0 0 0;
#X connect 10 0 0 0;
#X connect 12 0 0 0;
#X connect 14 0 0 0;
#X connect 15 0 0 0;
#X connect 16 0 0 0;
#X connect 17 0 0 0;
#X connect 20 0 0 0;
#X connect 22 0 0 0;
#X restore -114 530 pd editing;
#N canvas 0 22 676 304 searching 0;
#X obj 54 272 outlet;
#X msg 70 180 find test 6;
#X msg 70 239 find test * 7 *;
#X text 73 61 searching (and finding) lines within the [msgfile];
#X text 177 241 you can use '*' as a wildchard for a single atom. '*'
is the only wildcard supported;
#X text 174 178 find a matching list \, starting at the current position
;
#X msg 72 208 find the new day;
#X text 76 130 if the search fails \, a 'bang' is emitted at the 2nd
outlet;
#X text 77 99 if the searched list is found \, then the linenumber
and the list is output (via the 2nd and 1st outlet).;
#X connect 1 0 0 0;
#X connect 2 0 0 0;
#X connect 6 0 0 0;
#X restore -114 550 pd searching;
#N canvas 575 306 853 402 file-i/o 0;
#X obj 54 312 outlet;
#X text 265 75 read a file;
#X text 299 96 write one;
#X text 305 164 write a file \, terminating lines only with carriage
return (omitting semicolons.) You can read files this way too \, in
which case carriage returns are mapped to semicolons.;
#X msg 87 76 read msgfile.txt;
#X msg 87 168 write /tmp/msgfile2.txt cr;
#X msg 87 191 read msgfile2.txt cr;
#X msg 87 97 write /tmp/msgfile.txt;
#X text 51 26 reading from and writing the contents of [msgfile] to
files;
#X msg 111 248 write /tmp/msgfile3.txt $$;
#X text 331 238 on writing replace every occurence of $$ with a single
$. This way you can write pd-patches which can handle arguments.;
#X msg 146 291 add #X obj f $\$1;
#X msg 92 130 read2 msgfile.txt;
#X text 264 131 read file and append it to the current buffer;
#X connect 4 0 0 0;
#X connect 5 0 0 0;
#X connect 6 0 0 0;
#X connect 7 0 0 0;
#X connect 9 0 0 0;
#X connect 11 0 0 0;
#X connect 12 0 0 0;
#X restore -114 570 pd file-i/o;
#N canvas 56 448 450 397 misc 0;
#X obj 84 282 outlet;
#X msg 84 112 print;
#X text 40 72 miscellaneous functionality of [msgfile];
#X text 126 114 debugging printout of the contents to the console;
#X connect 1 0 0 0;
#X restore -114 590 pd misc;
#X obj -151 693 print dataTXT;
#X obj 224 523 list2symbol;
#X text -183 450 clear;
#X obj 185 551 symbol;
#X msg 65 585 add \$1;
#X msg -190 414 write \$1 cr;
#X obj -190 373 savepanel;
#X obj -190 338 bng 29 250 50 0 empty empty empty 17 7 0 10 -258113
-4034 -1;
#X msg -174 469 clear;
#X msg 30 432 delete;
#X msg 356 64 location /media/OiO_/VIDEO/MIX_VID/vid28/From~stueber_haeckel
;
#X msg 365 106 location /media/OiO_/VIDEO/MIX_VID/Vid22F/digitalglobe
;
#X obj -190 312 inlet;
#X obj 20 631 outlet;
#X obj 88 321 inlet;
#X connect 0 0 23 0;
#X connect 2 0 1 0;
#X connect 6 0 5 0;
#X connect 7 0 9 0;
#X connect 11 0 12 0;
#X connect 12 0 19 0;
#X connect 12 1 10 0;
#X connect 13 0 12 0;
#X connect 14 0 12 0;
#X connect 15 0 12 0;
#X connect 16 0 12 0;
#X connect 17 0 12 0;
#X connect 18 0 12 0;
#X connect 20 0 22 1;
#X connect 22 0 23 0;
#X connect 23 0 12 0;
#X connect 24 0 12 0;
#X connect 25 0 24 0;
#X connect 25 0 32 0;
#X connect 26 0 25 0;
#X connect 27 0 12 0;
#X connect 28 0 12 0;
#X connect 31 0 26 0;
#X connect 33 0 0 0;
#X restore 972 827 pd playlist_maker;
#X symbolatom 972 852 50 0 0 0 - - -;
#X obj 972 791 bng 29 250 50 0 empty empty empty 17 7 0 10 -258113
-4034 -1;
#X msg 1165 72 next;
#X msg 1164 30 prev;
#X msg 1165 51 this;
#X msg 1113 52 rewind;
#X msg 1212 31 end;
#X msg 1210 73 where;
#X msg 1209 53 goto 8;
#N canvas 515 127 1035 939 Midi_BCR2000 0;
#X obj 163 -73 ctlin;
#X floatatom 96 -44 5 0 0 0 - - -;
#X floatatom 184 -36 5 0 0 0 - - -;
#X floatatom 252 -34 5 0 0 0 - - -;
#X obj 1 20 cnv 15 1000 370 empty empty empty 20 12 0 14 -261689 -66577
0;
#X floatatom 904 45 5 0 0 0 - - -;
#X obj 904 81 s ctl8;
#X obj 904 61 / 127;
#X text 904 0 CAM 1;
#X floatatom 905 424 5 0 0 0 - - -;
#X floatatom 904 123 5 0 0 0 - - -;
#X obj 904 140 select 127;
#X msg 959 161 0;
#X msg 904 159 1;
#X obj 904 178 s ctl40;
#X obj 770 -4 cnv 15 120 900 empty empty empty 20 12 0 14 -225271 -66577
0;
#X obj 905 464 s ctl88;
#X obj 905 443 / 1.5;
#X floatatom 904 219 5 0 0 0 - - -;
#X obj 904 236 select 127;
#X msg 961 256 0;
#X msg 904 255 1;
#X obj 904 274 s ctl72;
#X obj 973 235 r ib;
#X floatatom 905 315 5 0 0 0 - - -;
#X obj 905 332 select 127;
#X msg 962 352 0;
#X msg 905 351 1;
#X obj 974 331 r ib;
#X obj 905 370 s ctl80;
#X floatatom 792 45 5 0 0 0 - - -;
#X obj 792 61 / 127;
#X floatatom 793 424 5 0 0 0 - - -;
#X floatatom 792 123 5 0 0 0 - - -;
#X obj 792 140 select 127;
#X msg 847 161 0;
#X msg 792 159 1;
#X obj 793 443 / 1.5;
#X floatatom 792 219 5 0 0 0 - - -;
#X obj 792 236 select 127;
#X msg 849 256 0;
#X msg 792 255 1;
#X obj 861 235 r ib;
#X floatatom 793 315 5 0 0 0 - - -;
#X obj 793 332 select 127;
#X msg 850 352 0;
#X msg 793 351 1;
#X obj 862 331 r ib;
#X text 792 0 CAM 2;
#X obj 792 81 s ctl7;
#X obj 792 274 s ctl71;
#X obj 793 370 s ctl79;
#X obj 793 464 s ctl87;
#X obj 792 178 s ctl39;
#X floatatom 793 512 5 0 0 0 - - -;
#X obj 793 552 s ctl95;
#X obj 793 530 / 381;
#X floatatom 905 512 5 0 0 0 - - -;
#X obj 905 530 / 381;
#X obj 905 552 s ctl96;
#X floatatom 664 40 5 0 0 0 - - -;
#X obj 664 56 / 127;
#X floatatom 665 419 5 0 0 0 - - -;
#X floatatom 664 118 5 0 0 0 - - -;
#X obj 664 135 select 127;
#X msg 719 156 0;
#X msg 664 154 1;
#X obj 530 -9 cnv 15 120 900 empty empty empty 20 12 0 14 -225271 -66577
0;
#X floatatom 664 214 5 0 0 0 - - -;
#X obj 664 231 select 127;
#X msg 721 251 0;
#X msg 664 250 1;
#X obj 733 230 r ib;
#X floatatom 665 310 5 0 0 0 - - -;
#X obj 665 327 select 127;
#X msg 722 347 0;
#X msg 665 346 1;
#X obj 734 326 r ib;
#X floatatom 552 40 5 0 0 0 - - -;
#X obj 552 56 / 127;
#X floatatom 553 419 5 0 0 0 - - -;
#X floatatom 552 118 5 0 0 0 - - -;
#X obj 552 135 select 127;
#X msg 607 156 0;
#X msg 552 154 1;
#X floatatom 552 214 5 0 0 0 - - -;
#X obj 552 231 select 127;
#X msg 609 251 0;
#X msg 552 250 1;
#X obj 621 230 r ib;
#X floatatom 553 310 5 0 0 0 - - -;
#X obj 553 327 select 127;
#X msg 610 347 0;
#X msg 553 346 1;
#X obj 622 326 r ib;
#X floatatom 553 507 5 0 0 0 - - -;
#X floatatom 665 507 5 0 0 0 - - -;
#X text 664 -5 RECT;
#X text 552 -5 SPHERE;
#X text 852 26 OPACITE;
#X text 853 200 GEM O/F;
#X text 848 100 ALPHA O/F;
#X text 860 295 INV;
#X text 859 400 x Alpha;
#X text 837 474 Seuil Alpha;
#X obj 664 269 s ctl70;
#X obj 664 76 s ctl6;
#X obj 664 173 s ctl38;
#X obj 665 365 s ctl78;
#X obj 665 459 s ctl86;
#X obj 552 76 s ctl5;
#X obj 552 173 s ctl37;
#X obj 552 269 s ctl69;
#X obj 553 365 s ctl77;
#X obj 553 459 s ctl85;
#X obj 665 438 / 5;
#X obj 553 438 / 5;
#X obj 664 547 s ctl94;
#X obj 553 547 s ctl93;
#X obj 664 525 / 5;
#X floatatom 663 602 5 0 0 0 - - -;
#X obj 662 640 s ctl102;
#X obj 662 620 / 1;
#X text 613 17 OPACITE;
#X text 612 195 GEM O/F;
#X text 607 96 ALPHA O/F;
#X text 621 292 INV;
#X text 608 398 x Alpha;
#X text 599 472 Seuil Alpha;
#X text 622 579 REPEAT;
#X floatatom 549 601 5 0 0 0 - - -;
#X obj 548 619 / 1;
#X obj 548 641 s ctl101;
#X obj 553 525 / 5;
#X floatatom 431 43 5 0 0 0 - - -;
#X obj 431 59 / 127;
#X floatatom 432 422 5 0 0 0 - - -;
#X floatatom 431 121 5 0 0 0 - - -;
#X obj 431 138 select 127;
#X msg 486 159 0;
#X msg 431 157 1;
#X obj 297 -6 cnv 15 120 900 empty empty empty 20 12 0 14 -225271 -66577
0;
#X floatatom 431 217 5 0 0 0 - - -;
#X obj 431 234 select 127;
#X msg 488 254 0;
#X msg 431 253 1;
#X obj 500 233 r ib;
#X floatatom 432 313 5 0 0 0 - - -;
#X obj 432 330 select 127;
#X msg 489 350 0;
#X msg 432 349 1;
#X obj 501 329 r ib;
#X floatatom 319 43 5 0 0 0 - - -;
#X obj 319 59 / 127;
#X floatatom 320 422 5 0 0 0 - - -;
#X floatatom 319 121 5 0 0 0 - - -;
#X obj 319 138 select 127;
#X msg 374 159 0;
#X msg 319 157 1;
#X floatatom 319 217 5 0 0 0 - - -;
#X obj 319 234 select 127;
#X msg 376 254 0;
#X msg 319 253 1;
#X obj 388 233 r ib;
#X floatatom 320 313 5 0 0 0 - - -;
#X obj 320 330 select 127;
#X msg 377 350 0;
#X msg 320 349 1;
#X obj 389 329 r ib;
#X floatatom 320 510 5 0 0 0 - - -;
#X floatatom 432 510 5 0 0 0 - - -;
#X obj 432 441 / 5;
#X obj 320 441 / 5;
#X floatatom 430 605 5 0 0 0 - - -;
#X text 380 20 OPACITE;
#X text 379 198 GEM O/F;
#X text 374 99 ALPHA O/F;
#X text 388 295 INV;
#X text 387 401 x Alpha;
#X text 366 475 Seuil Alpha;
#X floatatom 316 604 5 0 0 0 - - -;
#X text 431 -2 LECTEUR Vid01;
#X text 320 -3 LECTEUR Vid02;
#X obj 431 79 s ctl4;
#X obj 319 79 s ctl3;
#X obj 319 176 s ctl35;
#X obj 431 176 s ctl36;
#X obj 431 272 s ctl68;
#X obj 432 368 s ctl76;
#X obj 432 462 s ctl84;
#X obj 429 645 s ctl100;
#X obj 319 272 s ctl67;
#X obj 320 368 s ctl75;
#X obj 320 462 s ctl83;
#X obj 315 644 s ctl99;
#X obj 431 550 s ctl92;
#X obj 320 550 s ctl91;
#X obj 431 528 / 500;
#X obj 320 528 / 500;
#X text 390 88 AUDIO;
#X text 619 84 AUDIO;
#X text 861 89 AUDIO;
#X floatatom 194 45 5 0 0 0 - - -;
#X obj 194 61 / 127;
#X floatatom 195 424 5 0 0 0 - - -;
#X floatatom 194 123 5 0 0 0 - - -;
#X obj 194 140 select 127;
#X msg 249 161 0;
#X msg 194 159 1;
#X obj 60 -4 cnv 15 120 900 empty empty empty 20 12 0 14 -225271 -66577
0;
#X floatatom 194 219 5 0 0 0 - - -;
#X obj 194 236 select 127;
#X msg 251 256 0;
#X msg 194 255 1;
#X obj 263 235 r ib;
#X floatatom 195 315 5 0 0 0 - - -;
#X obj 195 332 select 127;
#X msg 252 352 0;
#X msg 195 351 1;
#X obj 264 331 r ib;
#X floatatom 82 45 5 0 0 0 - - -;
#X obj 82 61 / 127;
#X floatatom 83 424 5 0 0 0 - - -;
#X floatatom 82 123 5 0 0 0 - - -;
#X obj 82 140 select 127;
#X msg 137 161 0;
#X msg 82 159 1;
#X floatatom 82 219 5 0 0 0 - - -;
#X obj 82 236 select 127;
#X msg 139 256 0;
#X msg 82 255 1;
#X obj 151 235 r ib;
#X floatatom 83 315 5 0 0 0 - - -;
#X obj 83 332 select 127;
#X msg 140 352 0;
#X msg 83 351 1;
#X obj 152 331 r ib;
#X floatatom 83 512 5 0 0 0 - - -;
#X floatatom 195 512 5 0 0 0 - - -;
#X obj 195 443 / 5;
#X obj 83 443 / 5;
#X floatatom 193 607 5 0 0 0 - - -;
#X text 143 22 OPACITE;
#X text 142 200 GEM O/F;
#X text 137 101 ALPHA O/F;
#X text 151 297 INV;
#X text 150 401 x Alpha;
#X text 129 477 Seuil Alpha;
#X floatatom 79 606 5 0 0 0 - - -;
#X obj 194 530 / 500;
#X obj 83 530 / 500;
#X text 153 90 AUDIO;
#X text 197 -5 Mix Vid02;
#X text 85 -3 Mix Vid01;
#X obj 194 81 s ctl2;
#X obj 194 178 s ctl34;
#X obj 194 274 s ctl66;
#X obj 195 370 s ctl74;
#X obj 195 464 s ctl82;
#X obj 194 552 s ctl90;
#X obj 192 647 s ctl98;
#X obj 78 646 s ctl97;
#X obj 83 552 s ctl89;
#X obj 83 464 s ctl81;
#X obj 83 370 s ctl73;
#X obj 82 274 s ctl65;
#X obj 82 178 s ctl33;
#X obj 82 81 s ctl1;
#X text 140 584 SCRATCH;
#X text 377 585 SCRATCH;
#X obj 78 624 / 127;
#X obj 193 625 / 127;
#X obj 315 622 / 127;
#X obj 430 624 / 127;
#X floatatom 909 606 5 0 0 0 - - -;
#X text 856 583 REPEAT;
#X floatatom 786 605 5 0 0 0 - - -;
#X obj 786 583 ctlin 103 1;
#X text 988 591 Taille;
#X text 876 567 ORTHO;
#X obj 786 644 s ctl103;
#X obj 908 644 s ctl104;
#X obj 786 623 * 10;
#X obj 908 624 / 5;
#X obj 82 26 ctlin 1 1;
#X obj 194 26 ctlin 2 1;
#X obj 319 24 ctlin 3 1;
#X obj 431 24 ctlin 4 1;
#X obj 552 21 ctlin 5 1;
#X obj 664 21 ctlin 6 1;
#X obj 792 26 ctlin 7 1;
#X obj 904 26 ctlin 8 1;
#X obj 82 102 ctlin 111 1;
#X obj 194 103 ctlin 112 1;
#X obj 319 101 ctlin 113 1;
#X obj 433 101 ctlin 114 1;
#X obj 552 98 ctlin 115 1;
#X obj 664 99 ctlin 116 1;
#X obj 792 103 ctlin 117 1;
#X obj 904 103 ctlin 118 1;
#X obj 83 200 ctlin 65 1;
#X obj 194 200 ctlin 66 1;
#X obj 320 198 ctlin 67 1;
#X obj 431 198 ctlin 68 1;
#X obj 553 195 ctlin 69 1;
#X obj 664 195 ctlin 70 1;
#X obj 792 200 ctlin 71 1;
#X obj 904 200 ctlin 72 1;
#X obj 83 297 ctlin 73 1;
#X obj 195 297 ctlin 74 1;
#X obj 320 295 ctlin 75 1;
#X obj 432 295 ctlin 76 1;
#X obj 553 292 ctlin 77 1;
#X obj 665 292 ctlin 78 1;
#X obj 793 297 ctlin 79 1;
#X obj 905 297 ctlin 80 1;
#X obj 83 402 ctlin 81 1;
#X obj 195 402 ctlin 82 1;
#X obj 320 400 ctlin 83 1;
#X obj 432 400 ctlin 84 1;
#X obj 553 397 ctlin 85 1;
#X obj 665 397 ctlin 86 1;
#X obj 793 402 ctlin 87 1;
#X obj 905 402 ctlin 88 1;
#X obj 83 490 ctlin 89 1;
#X obj 195 490 ctlin 90 1;
#X obj 320 488 ctlin 91 1;
#X obj 432 488 ctlin 92 1;
#X obj 553 485 ctlin 93 1;
#X obj 665 485 ctlin 94 1;
#X obj 793 490 ctlin 95 1;
#X obj 905 490 ctlin 96 1;
#X obj 79 584 ctlin 97 1;
#X obj 193 585 ctlin 98 1;
#X obj 316 582 ctlin 99 1;
#X obj 430 583 ctlin 100 1;
#X obj 549 579 ctlin 101 1;
#X obj 663 580 ctlin 102 1;
#X obj 909 584 ctlin 104 1;
#X connect 0 0 1 0;
#X connect 0 1 2 0;
#X connect 0 2 3 0;
#X connect 5 0 7 0;
#X connect 7 0 6 0;
#X connect 9 0 17 0;
#X connect 10 0 11 0;
#X connect 11 0 13 0;
#X connect 11 1 12 0;
#X connect 12 0 14 0;
#X connect 13 0 14 0;
#X connect 17 0 16 0;
#X connect 18 0 19 0;
#X connect 19 0 21 0;
#X connect 19 1 20 0;
#X connect 20 0 22 0;
#X connect 21 0 22 0;
#X connect 23 0 20 0;
#X connect 24 0 25 0;
#X connect 25 0 27 0;
#X connect 25 1 26 0;
#X connect 26 0 29 0;
#X connect 27 0 29 0;
#X connect 28 0 26 0;
#X connect 30 0 31 0;
#X connect 31 0 49 0;
#X connect 32 0 37 0;
#X connect 33 0 34 0;
#X connect 34 0 36 0;
#X connect 34 1 35 0;
#X connect 35 0 53 0;
#X connect 36 0 53 0;
#X connect 37 0 52 0;
#X connect 38 0 39 0;
#X connect 39 0 41 0;
#X connect 39 1 40 0;
#X connect 40 0 50 0;
#X connect 41 0 50 0;
#X connect 42 0 40 0;
#X connect 43 0 44 0;
#X connect 44 0 46 0;
#X connect 44 1 45 0;
#X connect 45 0 51 0;
#X connect 46 0 51 0;
#X connect 47 0 45 0;
#X connect 54 0 56 0;
#X connect 56 0 55 0;
#X connect 57 0 58 0;
#X connect 58 0 59 0;
#X connect 60 0 61 0;
#X connect 61 0 106 0;
#X connect 62 0 115 0;
#X connect 63 0 64 0;
#X connect 64 0 66 0;
#X connect 64 1 65 0;
#X connect 65 0 107 0;
#X connect 66 0 107 0;
#X connect 68 0 69 0;
#X connect 69 0 71 0;
#X connect 69 1 70 0;
#X connect 70 0 105 0;
#X connect 71 0 105 0;
#X connect 72 0 70 0;
#X connect 73 0 74 0;
#X connect 74 0 76 0;
#X connect 74 1 75 0;
#X connect 75 0 108 0;
#X connect 76 0 108 0;
#X connect 77 0 75 0;
#X connect 78 0 79 0;
#X connect 79 0 110 0;
#X connect 80 0 116 0;
#X connect 81 0 82 0;
#X connect 82 0 84 0;
#X connect 82 1 83 0;
#X connect 83 0 111 0;
#X connect 84 0 111 0;
#X connect 85 0 86 0;
#X connect 86 0 88 0;
#X connect 86 1 87 0;
#X connect 87 0 112 0;
#X connect 88 0 112 0;
#X connect 89 0 87 0;
#X connect 90 0 91 0;
#X connect 91 0 93 0;
#X connect 91 1 92 0;
#X connect 92 0 113 0;
#X connect 93 0 113 0;
#X connect 94 0 92 0;
#X connect 95 0 133 0;
#X connect 96 0 119 0;
#X connect 115 0 109 0;
#X connect 116 0 114 0;
#X connect 119 0 117 0;
#X connect 120 0 122 0;
#X connect 122 0 121 0;
#X connect 130 0 131 0;
#X connect 131 0 132 0;
#X connect 133 0 118 0;
#X connect 134 0 135 0;
#X connect 135 0 183 0;
#X connect 136 0 171 0;
#X connect 137 0 138 0;
#X connect 138 0 140 0;
#X connect 138 1 139 0;
#X connect 139 0 186 0;
#X connect 140 0 186 0;
#X connect 142 0 143 0;
#X connect 143 0 145 0;
#X connect 143 1 144 0;
#X connect 144 0 187 0;
#X connect 145 0 187 0;
#X connect 146 0 144 0;
#X connect 147 0 148 0;
#X connect 148 0 150 0;
#X connect 148 1 149 0;
#X connect 149 0 188 0;
#X connect 150 0 188 0;
#X connect 151 0 149 0;
#X connect 152 0 153 0;
#X connect 153 0 184 0;
#X connect 154 0 172 0;
#X connect 155 0 156 0;
#X connect 156 0 158 0;
#X connect 156 1 157 0;
#X connect 157 0 185 0;
#X connect 158 0 185 0;
#X connect 159 0 160 0;
#X connect 160 0 162 0;
#X connect 160 1 161 0;
#X connect 161 0 191 0;
#X connect 162 0 191 0;
#X connect 163 0 161 0;
#X connect 164 0 165 0;
#X connect 165 0 167 0;
#X connect 165 1 166 0;
#X connect 166 0 192 0;
#X connect 167 0 192 0;
#X connect 168 0 166 0;
#X connect 169 0 198 0;
#X connect 170 0 197 0;
#X connect 171 0 189 0;
#X connect 172 0 193 0;
#X connect 173 0 273 0;
#X connect 180 0 272 0;
#X connect 197 0 195 0;
#X connect 198 0 196 0;
#X connect 202 0 203 0;
#X connect 203 0 254 0;
#X connect 204 0 239 0;
#X connect 205 0 206 0;
#X connect 206 0 208 0;
#X connect 206 1 207 0;
#X connect 207 0 255 0;
#X connect 208 0 255 0;
#X connect 210 0 211 0;
#X connect 211 0 213 0;
#X connect 211 1 212 0;
#X connect 212 0 256 0;
#X connect 213 0 256 0;
#X connect 214 0 212 0;
#X connect 215 0 216 0;
#X connect 216 0 218 0;
#X connect 216 1 217 0;
#X connect 217 0 257 0;
#X connect 218 0 257 0;
#X connect 219 0 217 0;
#X connect 220 0 221 0;
#X connect 221 0 267 0;
#X connect 222 0 240 0;
#X connect 223 0 224 0;
#X connect 224 0 226 0;
#X connect 224 1 225 0;
#X connect 225 0 266 0;
#X connect 226 0 266 0;
#X connect 227 0 228 0;
#X connect 228 0 230 0;
#X connect 228 1 229 0;
#X connect 229 0 265 0;
#X connect 230 0 265 0;
#X connect 231 0 229 0;
#X connect 232 0 233 0;
#X connect 233 0 235 0;
#X connect 233 1 234 0;
#X connect 234 0 264 0;
#X connect 235 0 264 0;
#X connect 236 0 234 0;
#X connect 237 0 250 0;
#X connect 238 0 249 0;
#X connect 239 0 258 0;
#X connect 240 0 263 0;
#X connect 241 0 271 0;
#X connect 248 0 270 0;
#X connect 249 0 259 0;
#X connect 250 0 262 0;
#X connect 270 0 261 0;
#X connect 271 0 260 0;
#X connect 272 0 194 0;
#X connect 273 0 190 0;
#X connect 274 0 283 0;
#X connect 276 0 282 0;
#X connect 277 0 276 0;
#X connect 282 0 280 0;
#X connect 283 0 281 0;
#X connect 284 0 220 0;
#X connect 285 0 202 0;
#X connect 286 0 152 0;
#X connect 287 0 134 0;
#X connect 288 0 78 0;
#X connect 289 0 60 0;
#X connect 290 0 30 0;
#X connect 291 0 5 0;
#X connect 292 0 223 0;
#X connect 293 0 205 0;
#X connect 294 0 155 0;
#X connect 295 0 137 0;
#X connect 296 0 81 0;
#X connect 297 0 63 0;
#X connect 298 0 33 0;
#X connect 299 0 10 0;
#X connect 300 0 227 0;
#X connect 301 0 210 0;
#X connect 302 0 159 0;
#X connect 303 0 142 0;
#X connect 304 0 85 0;
#X connect 305 0 68 0;
#X connect 306 0 38 0;
#X connect 307 0 18 0;
#X connect 308 0 232 0;
#X connect 309 0 215 0;
#X connect 310 0 164 0;
#X connect 311 0 147 0;
#X connect 312 0 90 0;
#X connect 313 0 73 0;
#X connect 314 0 43 0;
#X connect 315 0 24 0;
#X connect 316 0 222 0;
#X connect 317 0 204 0;
#X connect 318 0 154 0;
#X connect 319 0 136 0;
#X connect 320 0 80 0;
#X connect 321 0 62 0;
#X connect 322 0 32 0;
#X connect 323 0 9 0;
#X connect 324 0 237 0;
#X connect 325 0 238 0;
#X connect 326 0 169 0;
#X connect 327 0 170 0;
#X connect 328 0 95 0;
#X connect 329 0 96 0;
#X connect 330 0 54 0;
#X connect 331 0 57 0;
#X connect 332 0 248 0;
#X connect 333 0 241 0;
#X connect 334 0 180 0;
#X connect 335 0 173 0;
#X connect 336 0 130 0;
#X connect 337 0 120 0;
#X connect 338 0 274 0;
#X restore 821 888 pd Midi_BCR2000;
#X obj 1113 14 bng 29 250 50 0 empty empty empty 17 7 0 10 -258113
-4034 -1;
#N canvas 648 202 1029 711 playlist_player 0;
#X symbolatom 169 396 50 0 0 0 - - -;
#X msg 179 36 seek \$1;
#X floatatom 241 38 5 0 0 0 - - -;
#X symbolatom 210 423 50 0 0 0 - - -;
#X symbolatom 256 450 50 0 0 0 - - -;
#X msg 140 65 sort \$1;
#X obj 201 66 tgl 15 0 empty empty empty 0 -6 0 8 -262144 -1 -1 0 1
;
#X obj 35 72 loadbang;
#X msg 185 122 scroll 200;
#X msg -114 465 bang;
#X obj -151 627 msgfile;
#N canvas 76 237 646 300 navigation 0;
#X obj 54 272 outlet;
#X msg 91 140 rewind;
#X text 140 139 go to beginning;
#X msg 92 163 end;
#X text 139 163 go the the end;
#X msg 92 214 skip -1;
#X msg 92 238 where;
#X text 145 237 where are we now ?;
#X text 146 214 go to the <n>th line from here;
#X text 142 188 go to line number <n>;
#X text 44 38 navigating through the lines of a [msgfile];
#X text 42 62 these messages will not output any data;
#X text 41 96 'where' will output the position of the "cursor" at the
2nd outlet of [msgfile];
#X msg 92 189 goto 8;
#X connect 1 0 0 0;
#X connect 3 0 0 0;
#X connect 5 0 0 0;
#X connect 6 0 0 0;
#X connect 13 0 0 0;
#X restore -114 510 pd navigation;
#N canvas 707 298 458 426 data 0;
#X obj 54 332 outlet;
#X msg 105 143 bang;
#X msg 103 231 next;
#X msg 102 189 prev;
#X msg 103 210 this;
#X text 154 140 output one line as a list and move to the next;
#X text 151 189 output the previous line;
#X text 153 229 output the next line;
#X text 151 209 output the current line;
#X msg 104 264 flush;
#X text 153 263 output all lines;
#X text 39 37 get the contents of the [msgfile] line-by-line;
#X text 37 63 'prev' \, 'this' \, 'next' and 'flush' will not alter
the current "cursor" position.;
#X connect 1 0 0 0;
#X connect 2 0 0 0;
#X connect 3 0 0 0;
#X connect 4 0 0 0;
#X connect 9 0 0 0;
#X restore -114 490 pd data retrieval;
#N canvas 489 234 669 573 editing 0;
#X obj 54 512 outlet;
#X msg 137 101 clear;
#X msg 140 481 set 2 4 6 8;
#X text 246 480 clear and then add one message;
#X msg 136 258 add cis boom bah;
#X msg 136 277 add2 bang;
#X text 190 102 empty the object;
#X msg 137 161 delete 2;
#X text 272 303 insert a message before the current line;
#X text 238 255 add a message at the end of the object;
#X msg 137 359 append after the break of dawn;
#X text 331 356 add a message at the current position;
#X msg 138 437 replace the new day;
#X text 330 437 replace the current line;
#X msg 136 306 insert before sunrise;
#X msg 136 325 insert2 inserted;
#X msg 137 378 append2 appendix;
#X msg 137 141 delete;
#X text 191 142 delete the current line;
#X text 194 161 delete the specified line;
#X msg 137 180 delete 4 7;
#X text 205 181 delete the specified region;
#X msg 137 200 delete 7 4;
#X text 208 200 delete all but the specified region;
#X text 56 39 editing (adding \, modifying \, deleting) the content
if the [msgfile];
#X text 237 275 add to the last line (INCOMPATIBLE with [textfile])
;
#X text 275 325 add to the previous line (INCOMPATIBLE with [textfile])
;
#X text 330 379 add to the current line (INCOMPATIBLE with [textfile])
;
#X connect 1 0 0 0;
#X connect 2 0 0 0;
#X connect 4 0 0 0;
#X connect 5 0 0 0;
#X connect 7 0 0 0;
#X connect 10 0 0 0;
#X connect 12 0 0 0;
#X connect 14 0 0 0;
#X connect 15 0 0 0;
#X connect 16 0 0 0;
#X connect 17 0 0 0;
#X connect 20 0 0 0;
#X connect 22 0 0 0;
#X restore -114 530 pd editing;
#N canvas 0 22 676 304 searching 0;
#X obj 54 272 outlet;
#X msg 70 180 find test 6;
#X msg 70 239 find test * 7 *;
#X text 73 61 searching (and finding) lines within the [msgfile];
#X text 177 241 you can use '*' as a wildchard for a single atom. '*'
is the only wildcard supported;
#X text 174 178 find a matching list \, starting at the current position
;
#X msg 72 208 find the new day;
#X text 76 130 if the search fails \, a 'bang' is emitted at the 2nd
outlet;
#X text 77 99 if the searched list is found \, then the linenumber
and the list is output (via the 2nd and 1st outlet).;
#X connect 1 0 0 0;
#X connect 2 0 0 0;
#X connect 6 0 0 0;
#X restore -114 550 pd searching;
#N canvas 575 306 853 402 file-i/o 0;
#X obj 54 312 outlet;
#X text 265 75 read a file;
#X text 299 96 write one;
#X text 305 164 write a file \, terminating lines only with carriage
return (omitting semicolons.) You can read files this way too \, in
which case carriage returns are mapped to semicolons.;
#X msg 87 76 read msgfile.txt;
#X msg 87 168 write /tmp/msgfile2.txt cr;
#X msg 87 191 read msgfile2.txt cr;
#X msg 87 97 write /tmp/msgfile.txt;
#X text 51 26 reading from and writing the contents of [msgfile] to
files;
#X msg 111 248 write /tmp/msgfile3.txt $$;
#X text 331 238 on writing replace every occurence of $$ with a single
$. This way you can write pd-patches which can handle arguments.;
#X msg 146 291 add #X obj f $\$1;
#X msg 92 130 read2 msgfile.txt;
#X text 264 131 read file and append it to the current buffer;
#X connect 4 0 0 0;
#X connect 5 0 0 0;
#X connect 6 0 0 0;
#X connect 7 0 0 0;
#X connect 9 0 0 0;
#X connect 11 0 0 0;
#X connect 12 0 0 0;
#X restore -114 570 pd file-i/o;
#N canvas 56 448 450 397 misc 0;
#X obj 84 282 outlet;
#X msg 84 112 print;
#X text 40 72 miscellaneous functionality of [msgfile];
#X text 126 114 debugging printout of the contents to the console;
#X connect 1 0 0 0;
#X restore -114 590 pd misc;
#X obj 224 523 list2symbol;
#X text -183 450 clear;
#X obj 185 551 symbol;
#X obj -190 338 bng 29 250 50 0 empty empty empty 17 7 0 10 -258113
-4034 -1;
#X msg -174 469 clear;
#X msg 30 432 delete;
#X msg -125 125 location /media/Docs/Vid_gnirut-test/bacteria;
#X msg 109 629 read \$1 cr;
#X msg 65 585 read \$1 cr;
#X obj -190 373 openpanel;
#X msg -190 414 read \$1 cr;
#X msg 35 97 location /media/Docs/Vid_gnirut-test/patch/playlist;
#X msg 17 656 rewind;
#X obj -102 308 metro 15000;
#X obj -102 253 tgl 29 0 empty empty empty 17 7 0 10 -204786 -258113
-1 0 1;
#X obj -101 339 bng 15 250 50 0 empty empty empty 17 7 0 10 -262144
-1 -1;
#X obj -23 631 t b b;
#X msg -23 653 bang;
#X obj 16 595 t b a;
#X msg 18 618 rewind;
#X obj -187 238 inlet;
#X obj -100 220 inlet;
#X obj -38 220 inlet;
#X obj -39 282 * 1000;
#X floatatom -37 252 5 0 0 0 - - -;
#X obj 194 484 outlet;
#X obj -151 689 outlet;
#X obj -112 663 print playlistdone;
#X obj -82 285 inlet;
#X msg 39 311 next;
#X msg 38 269 prev;
#X obj 24 219 inlet;
#X obj 126 215 loadbang;
#X msg 126 248 read /media/Docs/ELODIE_Chant/patch_pd/JardinG.txt cr
;
#X connect 0 0 25 0;
#X connect 2 0 1 0;
#X connect 3 0 42 0;
#X connect 6 0 5 0;
#X connect 7 0 28 0;
#X connect 9 0 10 0;
#X connect 10 0 43 0;
#X connect 10 1 33 0;
#X connect 10 1 44 0;
#X connect 11 0 10 0;
#X connect 12 0 10 0;
#X connect 13 0 10 0;
#X connect 14 0 10 0;
#X connect 15 0 10 0;
#X connect 16 0 10 0;
#X connect 17 0 19 1;
#X connect 19 0 25 0;
#X connect 20 0 26 0;
#X connect 21 0 10 0;
#X connect 22 0 10 0;
#X connect 25 0 35 0;
#X connect 26 0 27 0;
#X connect 27 0 10 0;
#X connect 29 0 10 0;
#X connect 30 0 32 0;
#X connect 31 0 30 0;
#X connect 32 0 9 0;
#X connect 33 0 34 0;
#X connect 33 1 29 0;
#X connect 34 0 10 0;
#X connect 35 0 36 0;
#X connect 35 1 10 0;
#X connect 36 0 10 0;
#X connect 37 0 20 0;
#X connect 38 0 31 0;
#X connect 39 0 41 0;
#X connect 40 0 30 1;
#X connect 41 0 40 0;
#X connect 45 0 32 0;
#X connect 46 0 10 0;
#X connect 47 0 10 0;
#X connect 48 0 10 0;
#X connect 49 0 50 0;
#X connect 50 0 10 0;
#X restore 388 58 pd playlist_player;
#X obj 388 35 bng 15 250 50 0 empty empty Load 17 7 0 10 -258113 -4034
-1;
#X obj 440 20 tgl 29 0 empty empty empty 17 7 0 10 -204786 -258113
-1 0 1;
#X floatatom 505 19 5 0 0 0 - - -;
#X text 545 21 duree (s);
#X obj 404 82 print dataTXT;
#X msg 390 151 open \$1;
#X obj 475 30 bng 15 250 50 0 empty empty empty 17 7 0 10 -262144 -1
-1;
#X symbolatom 389 108 64 0 0 0 - - -;
#X msg 664 72 next;
#X msg 663 30 prev;
#X msg 664 51 this;
#X msg 612 52 rewind;
#X msg 711 31 end;
#X msg 709 73 where;
#X msg 708 53 goto 8;
#X obj 612 14 bng 29 250 50 0 empty empty empty 17 7 0 10 -258113 -4034
-1;
#X obj 813 2 bng 29 250 50 0 empty empty empty 17 7 0 10 -258113 -4034
-1;
#X obj 389 129 t b a b;
#X obj 891 132 t b a b;
#X msg 1105 343 0 10000;
#X obj 1389 82 tgl 19 0 empty empty Gem 0 -6 0 8 -258699 -1 -1 0 1
;
#X obj 1395 656 alpha;
#X obj 1334 641 tgl 15 1 empty empty empty 0 -6 0 8 -262144 -1 -1 1
1;
#X obj 1395 677 color;
#X obj 1520 600 vsl 8 50 0 1 0 0 empty empty empty 0 -8 0 8 -258699
-1 -1 4900 1;
#X obj 1528 600 vsl 8 50 0 1 0 0 empty empty empty 0 -8 0 8 -24198
-1 -1 4900 1;
#X obj 1536 600 vsl 8 50 0 1 0 0 empty empty empty 0 -8 0 8 -355 -1
-1 4900 1;
#X obj 1544 600 vsl 8 50 0 1 0 0 empty empty empty 0 -8 0 8 -195568
-1 -1 0 1;
#N canvas 1 110 452 302 color 0;
#X obj 44 212 pack f f f f;
#X msg 44 236 \$1 \$2 \$3 \$4;
#X obj 26 145 bng 15 250 50 0 empty empty empty 0 -6 0 8 -262144 -1
-1;
#X obj 41 144 t b f;
#X obj 41 35 vsl 8 50 0 1 0 0 empty empty empty 0 -8 0 8 -258699 -1
-1 4900 1;
#X obj 49 35 vsl 8 50 0 1 0 0 empty empty empty 0 -8 0 8 -24198 -1
-1 4900 1;
#X obj 57 35 vsl 8 50 0 1 0 0 empty empty empty 0 -8 0 8 -355 -1 -1
4900 1;
#X obj 65 35 vsl 8 50 0 1 0 0 empty empty empty 0 -8 0 8 -195568 -1
-1 0 1;
#X obj 63 167 t b f;
#X obj 86 189 t b f;
#X floatatom 77 86 5 0 0 0 - - -;
#X floatatom 67 101 5 0 0 0 - - -;
#X floatatom 53 115 5 0 0 0 - - -;
#X floatatom 35 129 5 0 0 0 - - -;
#X obj 17 7 inlet;
#X obj 52 7 inlet;
#X obj 87 7 inlet;
#X obj 122 8 inlet;
#X obj 44 261 outlet;
#X connect 0 0 1 0;
#X connect 1 0 18 0;
#X connect 2 0 0 0;
#X connect 3 0 0 0;
#X connect 3 1 0 1;
#X connect 4 0 0 0;
#X connect 4 0 13 0;
#X connect 5 0 3 0;
#X connect 5 0 12 0;
#X connect 6 0 8 0;
#X connect 6 0 11 0;
#X connect 7 0 9 0;
#X connect 7 0 10 0;
#X connect 8 0 0 0;
#X connect 8 1 0 2;
#X connect 9 0 0 0;
#X connect 9 1 0 3;
#X connect 14 0 4 0;
#X connect 15 0 5 0;
#X connect 16 0 6 0;
#X connect 17 0 7 0;
#X restore 1511 660 pd color;
#X msg 1520 555 1;
#X floatatom 1472 716 5 0 0 0 - - -;
#X floatatom 1506 716 5 0 0 0 - - -;
#X floatatom 1472 681 5 0 0 0 - - -;
#X obj 1395 700 pix_texture;
#X obj 1302 161 bng 15 250 50 0 empty empty pix_load 20 8 0 8 -24198
-258699 -1;
#X obj 1389 106 gemhead 39;
#X obj 1389 262 pix_film;
#X msg 1302 255 auto \$1;
#X msg 1302 203 open \$1;
#X obj 1302 184 openpanel;
#X obj 1302 230 tgl 15 0 empty empty empty 0 -6 0 8 -262144 -1 -1 0
1;
#X floatatom 1434 243 5 0 0 0 - - -;
#X obj 1415 322 unpack 0 0 0;
#X floatatom 1415 344 5 0 0 3 length - -;
#X floatatom 1462 344 5 0 0 3 width - -;
#X floatatom 1496 344 5 0 0 3 height - -;
#X obj 1458 304 bng 15 250 50 0 empty empty La_Fin 20 7 0 8 -1 -262144
-1;
#X obj 1434 284 t b;
#X msg 1406 176 colorspace rgba;
#X msg 1547 555 0;
#X obj 1534 529 loadbang;
#X obj 1515 77 bng 15 250 50 0 empty empty empty 0 -6 0 8 -262144 -1
-1;
#N canvas 710 340 450 300 openpanel 0;
#X obj 114 62 inlet;
#X obj 121 254 outlet;
#X obj 114 125 openpanel;
#X msg 114 162 set open \$1;
#X obj 114 199 t b a;
#X obj 244 249 outlet;
#X connect 0 0 2 0;
#X connect 2 0 3 0;
#X connect 2 0 5 0;
#X connect 3 0 4 0;
#X connect 4 0 1 0;
#X connect 4 1 1 0;
#X restore 1515 98 pd openpanel;
#X floatatom 1469 408 5 0 0 0 - - -;
#X floatatom 1510 408 5 0 0 0 - - -;
#X floatatom 1429 408 5 0 0 0 - - -;
#X msg 1458 146 open /media/Docs/ELODIE_Chant/mediaIMG/L_Stravinsky.mov
;
#X obj 1456 58 loadbang;
#X obj 1541 690 * 1080;
#X obj 1541 708 / 1920;
#X obj 1395 730 rectangle 5.334 3;
#X obj 1390 375 t a b;
#X msg 1434 217 0;
#X obj 1622 562 vsl 30 60 0 1 0 0 empty empty empty 0 -9 0 10 -128992
-258113 -1 0 1;
#X obj 1622 531 line;
#X msg 1578 478 0;
#X obj 1531 261 f;
#X obj 1558 261 + 1;
#X floatatom 1532 291 5 0 0 3 length - -;
#X msg 1567 234 0;
#X obj 1529 182 tgl 19 0 empty empty +fps 0 -6 0 8 -258699 -1 -1 0
1;
#X floatatom 1611 188 5 0 0 0 - - -;
#X obj 1614 59 bng 29 250 50 0 empty empty empty 17 7 0 10 -258113
-4034 -1;
#X obj 1614 96 t b b;
#X obj 1693 60 bng 29 250 50 0 empty empty End 6 -10 0 10 -1 -258113
-1;
#X msg 1677 167 0;
#X obj 1692 98 t b b;
#X obj 1716 173 delay 1500;
#X msg 1515 124 open;
#X msg 1578 500 1;
#X msg 411 452 0;
#X msg 928 454 0;
#X obj 1860 84 tgl 19 0 empty empty Gem 0 -6 0 8 -258699 -1 -1 0 1
;
#X obj 1866 658 alpha;
#X obj 1866 679 color;
#X obj 1991 602 vsl 8 50 0 1 0 0 empty empty empty 0 -8 0 8 -258699
-1 -1 0 1;
#X obj 1999 602 vsl 8 50 0 1 0 0 empty empty empty 0 -8 0 8 -24198
-1 -1 0 1;
#X obj 2007 602 vsl 8 50 0 1 0 0 empty empty empty 0 -8 0 8 -355 -1
-1 0 1;
#X obj 2015 602 vsl 8 50 0 1 0 0 empty empty empty 0 -8 0 8 -195568
-1 -1 4900 1;
#N canvas 1 110 452 302 color 0;
#X obj 44 212 pack f f f f;
#X msg 44 236 \$1 \$2 \$3 \$4;
#X obj 26 145 bng 15 250 50 0 empty empty empty 0 -6 0 8 -262144 -1
-1;
#X obj 41 144 t b f;
#X obj 41 35 vsl 8 50 0 1 0 0 empty empty empty 0 -8 0 8 -258699 -1
-1 0 1;
#X obj 49 35 vsl 8 50 0 1 0 0 empty empty empty 0 -8 0 8 -24198 -1
-1 0 1;
#X obj 57 35 vsl 8 50 0 1 0 0 empty empty empty 0 -8 0 8 -355 -1 -1
0 1;
#X obj 65 35 vsl 8 50 0 1 0 0 empty empty empty 0 -8 0 8 -195568 -1
-1 4900 1;
#X obj 63 167 t b f;
#X obj 86 189 t b f;
#X floatatom 77 86 5 0 0 0 - - -;
#X floatatom 67 101 5 0 0 0 - - -;
#X floatatom 53 115 5 0 0 0 - - -;
#X floatatom 35 129 5 0 0 0 - - -;
#X obj 17 7 inlet;
#X obj 52 7 inlet;
#X obj 87 7 inlet;
#X obj 122 8 inlet;
#X obj 44 261 outlet;
#X connect 0 0 1 0;
#X connect 1 0 18 0;
#X connect 2 0 0 0;
#X connect 3 0 0 0;
#X connect 3 1 0 1;
#X connect 4 0 0 0;
#X connect 4 0 13 0;
#X connect 5 0 3 0;
#X connect 5 0 12 0;
#X connect 6 0 8 0;
#X connect 6 0 11 0;
#X connect 7 0 9 0;
#X connect 7 0 10 0;
#X connect 8 0 0 0;
#X connect 8 1 0 2;
#X connect 9 0 0 0;
#X connect 9 1 0 3;
#X connect 14 0 4 0;
#X connect 15 0 5 0;
#X connect 16 0 6 0;
#X connect 17 0 7 0;
#X restore 1982 662 pd color;
#X floatatom 1941 712 5 0 0 0 - - -;
#X floatatom 1977 718 5 0 0 0 - - -;
#X floatatom 1943 683 5 0 0 0 - - -;
#X obj 1866 702 pix_texture;
#X obj 2005 531 loadbang;
#X floatatom 1939 157 5 0 0 0 - - -;
#X floatatom 1980 157 5 0 0 0 - - -;
#X floatatom 1899 157 5 0 0 0 - - -;
#X obj 2012 692 * 3;
#X obj 2012 710 / 4;
#X obj 1968 517 line;
#X msg 1991 557 0;
#X msg 1934 415 1 10000;
#X obj 825 160 gemhead 52;
#X obj 307 158 gemhead 51;
#X obj 1860 108 gemhead 32;
#X obj 1861 180 translateXYZ 5.333 0 0;
#X msg 1901 416 1;
#X obj 2013 485 line;
#X obj 2012 433 bng 15 250 50 0 empty empty RED_2_WHITE 20 8 0 8 -24198
-258699 -1;
#X msg 2075 465 0;
#X msg 2075 487 1;
#X msg 2013 457 1 240000;
#X text 2075 449 4 mn;
#X obj 2073 544 line;
#X msg 2019 556 1;
#X msg 2125 522 1;
#X msg 2074 521 0 1000;
#X floatatom 889 366 5 0 0 0 - - -;
#X floatatom 924 366 5 0 0 0 - - -;
#X floatatom 855 366 5 0 0 0 - - -;
#X obj 827 399 rotateXYZ 0 0 0;
#X msg 893 346 180;
#X msg 921 345 0;
#X msg 952 553 11;
#X msg 841 241 open /Users/KOAN/Movies/MIX/ MIX/choses.mov;
#X msg 950 591 33;
#X obj 969 695 line;
#X msg 969 641 1 1000;
#X msg 1015 668 \$1 100;
#X obj 1149 229 / 2;
#X msg 951 572 22.86;
#X obj 790 564 tgl 15 0 empty empty empty 17 7 0 10 -262144 -1 -1 0
1;
#X msg 1047 330 0.25;
#X msg 525 507 4.203;
#X msg 525 483 0.27;
#X msg 531 537 -4.87;
#X msg 943 619 4.763;
#X obj 1005 587 loadbang;
#X text 716 817 3840;
#X obj 1866 732 rectangle 4.58 3;
#X floatatom 2029 505 5 0 0 0 - - -;
#X msg 1622 477 1 10000;
#X msg 1668 504 0 5000;
#X msg 994 616 4.883;
#X obj 1530 204 metro 40;
#X obj 1556 336 sel 1250;
#X obj 307 269 pix_film;
#X obj 307 380 translateXYZ 0 0 0;
#X obj 825 272 pix_film;
#X msg 742 204 auto \$1;
#X obj 742 179 tgl 15 0 empty empty empty 0 -6 0 8 -262144 -1 -1 1
1;
#X msg 237 223 auto \$1;
#X obj 237 198 tgl 15 0 empty empty empty 0 -6 0 8 -262144 -1 -1 1
1;
#X obj 450 283 unpack 0 0 0;
#X floatatom 450 305 5 0 0 3 length - -;
#X floatatom 497 305 5 0 0 3 width - -;
#X floatatom 531 305 5 0 0 3 height - -;
#X obj 1391 425 translateXYZ 0 0 0;
#X obj 578 595 pix_add;
#X obj 223 139 loadbang;
#X obj 750 147 loadbang;
#X msg 378 291 0;
#X floatatom 381 270 5 0 0 0 - - -;
#X floatatom 964 267 5 0 0 0 - - -;
#X obj 844 293 unpack 0 0 0;
#X floatatom 844 315 5 0 0 3 length - -;
#X floatatom 891 315 5 0 0 3 width - -;
#X floatatom 925 315 5 0 0 3 height - -;
#X msg 894 265 0;
#X obj 895 177 bng 32 250 50 0 empty empty empty 0 -6 0 8 -4034 -1
-1;
#X obj 412 630 * 1080;
#X obj 413 655 / 1920;
#X obj 898 638 * 1080;
#X obj 899 663 / 1920;
#X msg 380 609 7.11;
#X connect 11 0 12 0;
#X connect 12 0 13 0;
#X connect 13 0 230 0;
#X connect 14 0 18 0;
#X connect 15 0 36 1;
#X connect 16 0 36 2;
#X connect 17 0 15 0;
#X connect 17 0 254 0;
#X connect 17 0 42 0;
#X connect 18 0 25 0;
#X connect 19 0 23 0;
#X connect 20 0 23 1;
#X connect 21 0 23 2;
#X connect 22 0 23 3;
#X connect 23 0 18 1;
#X connect 24 0 231 2;
#X connect 25 0 36 0;
#X connect 26 0 18 1;
#X connect 27 0 231 3;
#X connect 28 0 231 1;
#X connect 29 0 32 2;
#X connect 30 0 32 3;
#X connect 31 0 32 1;
#X connect 32 0 231 0;
#X connect 33 0 258 0;
#X connect 34 0 35 0;
#X connect 34 0 163 0;
#X connect 35 0 19 0;
#X connect 35 0 20 0;
#X connect 35 0 21 0;
#X connect 35 0 22 0;
#X connect 37 0 187 0;
#X connect 38 0 208 0;
#X connect 39 0 43 0;
#X connect 40 0 53 1;
#X connect 41 0 53 2;
#X connect 42 0 40 0;
#X connect 42 0 256 0;
#X connect 43 0 49 0;
#X connect 44 0 48 0;
#X connect 45 0 48 1;
#X connect 46 0 48 2;
#X connect 47 0 48 3;
#X connect 48 0 43 1;
#X connect 49 0 53 0;
#X connect 50 0 43 1;
#X connect 51 0 52 0;
#X connect 51 0 164 0;
#X connect 52 0 44 0;
#X connect 52 0 45 0;
#X connect 52 0 46 0;
#X connect 54 0 186 0;
#X connect 57 0 56 0;
#X connect 58 0 67 0;
#X connect 59 0 69 0;
#X connect 60 0 59 0;
#X connect 61 0 59 1;
#X connect 62 0 59 3;
#X connect 65 0 232 0;
#X connect 66 0 59 2;
#X connect 68 0 58 0;
#X connect 69 0 101 0;
#X connect 70 0 71 0;
#X connect 72 0 70 0;
#X connect 73 0 59 4;
#X connect 74 0 59 4;
#X connect 75 0 59 4;
#X connect 76 0 59 4;
#X connect 77 0 59 4;
#X connect 78 0 59 4;
#X connect 79 0 59 4;
#X connect 81 0 59 4;
#X connect 82 0 90 0;
#X connect 83 0 82 0;
#X connect 84 0 82 1;
#X connect 85 0 82 3;
#X connect 88 0 230 0;
#X connect 89 0 82 2;
#X connect 90 0 100 0;
#X connect 91 0 82 4;
#X connect 92 0 82 4;
#X connect 93 0 82 4;
#X connect 94 0 82 4;
#X connect 95 0 82 4;
#X connect 96 0 82 4;
#X connect 97 0 82 4;
#X connect 98 0 82 4;
#X connect 99 0 98 0;
#X connect 99 0 81 0;
#X connect 100 1 88 0;
#X connect 101 1 65 0;
#X connect 103 0 118 0;
#X connect 104 0 106 0;
#X connect 105 0 104 0;
#X connect 106 0 116 0;
#X connect 107 0 111 0;
#X connect 108 0 111 1;
#X connect 109 0 111 2;
#X connect 110 0 111 3;
#X connect 111 0 106 1;
#X connect 112 0 107 0;
#X connect 112 0 108 0;
#X connect 112 0 109 0;
#X connect 113 0 143 1;
#X connect 114 0 143 2;
#X connect 115 0 113 0;
#X connect 115 0 141 0;
#X connect 116 0 143 0;
#X connect 117 0 122 0;
#X connect 118 0 119 0;
#X connect 119 0 144 0;
#X connect 119 1 125 0;
#X connect 119 2 130 0;
#X connect 120 0 119 0;
#X connect 121 0 119 0;
#X connect 122 0 121 0;
#X connect 123 0 120 0;
#X connect 124 0 119 1;
#X connect 125 0 126 0;
#X connect 125 1 127 0;
#X connect 125 2 128 0;
#X connect 129 0 158 0;
#X connect 130 0 129 0;
#X connect 131 0 119 0;
#X connect 132 0 110 0;
#X connect 133 0 112 0;
#X connect 133 0 132 0;
#X connect 134 0 135 0;
#X connect 135 0 161 0;
#X connect 136 0 241 2;
#X connect 137 0 241 3;
#X connect 138 0 241 1;
#X connect 139 0 119 0;
#X connect 140 0 139 0;
#X connect 141 0 142 0;
#X connect 142 0 114 0;
#X connect 144 0 241 0;
#X connect 145 0 124 0;
#X connect 146 0 111 3;
#X connect 147 0 146 0;
#X connect 148 0 147 0;
#X connect 149 0 150 0;
#X connect 149 0 151 0;
#X connect 149 0 124 0;
#X connect 150 0 149 1;
#X connect 151 0 229 0;
#X connect 152 0 149 1;
#X connect 153 0 228 0;
#X connect 154 0 228 1;
#X connect 155 0 156 0;
#X connect 156 0 225 0;
#X connect 156 1 153 0;
#X connect 157 0 159 0;
#X connect 158 0 153 0;
#X connect 159 0 160 0;
#X connect 159 1 226 0;
#X connect 160 0 158 0;
#X connect 161 0 119 0;
#X connect 162 0 147 0;
#X connect 164 0 47 0;
#X connect 165 0 188 0;
#X connect 166 0 167 0;
#X connect 167 0 176 0;
#X connect 168 0 172 0;
#X connect 169 0 172 1;
#X connect 170 0 172 2;
#X connect 171 0 172 3;
#X connect 172 0 167 1;
#X connect 173 0 223 1;
#X connect 174 0 223 2;
#X connect 175 0 173 0;
#X connect 175 0 181 0;
#X connect 176 0 223 0;
#X connect 177 0 184 0;
#X connect 177 0 198 0;
#X connect 178 0 189 2;
#X connect 179 0 189 3;
#X connect 180 0 189 1;
#X connect 181 0 182 0;
#X connect 182 0 174 0;
#X connect 183 0 168 0;
#X connect 184 0 168 0;
#X connect 184 0 169 0;
#X connect 184 0 170 0;
#X connect 185 0 183 0;
#X connect 186 0 232 0;
#X connect 187 0 230 0;
#X connect 189 0 166 0;
#X connect 190 0 183 0;
#X connect 191 0 169 0;
#X connect 191 0 170 0;
#X connect 191 0 224 0;
#X connect 192 0 195 0;
#X connect 193 0 191 0;
#X connect 194 0 191 0;
#X connect 195 0 191 0;
#X connect 197 0 171 0;
#X connect 198 0 171 0;
#X connect 199 0 197 0;
#X connect 200 0 197 0;
#X connect 201 0 204 2;
#X connect 202 0 204 3;
#X connect 203 0 204 1;
#X connect 204 0 242 1;
#X connect 205 0 201 0;
#X connect 206 0 201 0;
#X connect 207 0 42 0;
#X connect 208 0 232 0;
#X connect 209 0 42 0;
#X connect 210 0 42 0;
#X connect 211 0 210 0;
#X connect 212 0 210 0;
#X connect 214 0 42 0;
#X connect 215 0 39 0;
#X connect 217 0 17 0;
#X connect 218 0 24 0;
#X connect 219 0 28 0;
#X connect 221 0 220 0;
#X connect 225 0 147 0;
#X connect 226 0 147 0;
#X connect 227 0 42 0;
#X connect 228 0 149 0;
#X connect 229 0 226 0;
#X connect 230 0 32 0;
#X connect 230 1 237 0;
#X connect 230 2 245 0;
#X connect 231 0 242 0;
#X connect 232 0 204 0;
#X connect 232 1 248 0;
#X connect 232 2 252 0;
#X connect 233 0 232 0;
#X connect 234 0 233 0;
#X connect 235 0 230 0;
#X connect 236 0 235 0;
#X connect 237 0 238 0;
#X connect 237 1 239 0;
#X connect 237 2 240 0;
#X connect 241 0 104 0;
#X connect 242 0 14 0;
#X connect 243 0 236 0;
#X connect 244 0 234 0;
#X connect 245 0 246 0;
#X connect 246 0 230 1;
#X connect 247 0 232 1;
#X connect 248 0 249 0;
#X connect 248 1 250 0;
#X connect 248 2 251 0;
#X connect 252 0 247 0;
#X connect 253 0 38 0;
#X connect 254 0 255 0;
#X connect 255 0 16 0;
#X connect 256 0 257 0;
#X connect 257 0 41 0;
#X connect 258 0 17 0;
