#N canvas 873 101 935 708 10;
#X obj 1 -6 cnv 15 1900 768 empty empty empty 20 12 0 14 -1 -66577
0;
#X obj 3 -4 cnv 15 1896 764 empty empty Synopsie 20 20 0 21 -182954
-66577 0;
#X obj 44 574 alpha;
#X floatatom 92 679 5 0 0 0 - - -, f 5;
#X floatatom 143 682 5 0 0 0 - - -, f 5;
#X floatatom 93 614 5 0 0 0 - - -, f 5;
#X obj 44 595 color;
#X obj 104 518 vsl 8 50 0 1 0 0 empty empty empty 0 -8 0 8 -258699
-1 -1 4900 1;
#X obj 112 518 vsl 8 50 0 1 0 0 empty empty empty 0 -8 0 8 -24198 -1
-1 4900 1;
#X obj 120 518 vsl 8 50 0 1 0 0 empty empty empty 0 -8 0 8 -355 -1
-1 4900 1;
#X obj 128 518 vsl 8 50 0 1 0 0 empty empty empty 0 -8 0 8 -195568
-1 -1 4900 1;
#N canvas 0 50 452 302 color 0;
#X obj 44 212 pack f f f f;
#X msg 44 236 \$1 \$2 \$3 \$4;
#X obj 26 145 bng 15 250 50 0 empty empty empty 0 -6 0 8 -262144 -1
-1;
#X obj 41 144 t b f;
#X obj 41 35 vsl 8 50 0 1 0 0 empty empty empty 0 -8 0 8 -258699 -1
-1 4900 1;
#X obj 49 35 vsl 8 50 0 1 0 0 empty empty empty 0 -8 0 8 -24198 -1
-1 4900 1;
#X obj 57 35 vsl 8 50 0 1 0 0 empty empty empty 0 -8 0 8 -355 -1 -1
4900 1;
#X obj 65 35 vsl 8 50 0 1 0 0 empty empty empty 0 -8 0 8 -195568 -1
-1 4900 1;
#X obj 63 167 t b f;
#X obj 86 189 t b f;
#X floatatom 77 86 5 0 0 0 - - -, f 5;
#X floatatom 67 101 5 0 0 0 - - -, f 5;
#X floatatom 53 115 5 0 0 0 - - -, f 5;
#X floatatom 35 129 5 0 0 0 - - -, f 5;
#X obj 17 7 inlet;
#X obj 52 7 inlet;
#X obj 87 7 inlet;
#X obj 122 8 inlet;
#X obj 44 261 outlet;
#X connect 0 0 1 0;
#X connect 1 0 18 0;
#X connect 2 0 0 0;
#X connect 3 0 0 0;
#X connect 3 1 0 1;
#X connect 4 0 0 0;
#X connect 4 0 13 0;
#X connect 5 0 3 0;
#X connect 5 0 12 0;
#X connect 6 0 8 0;
#X connect 6 0 11 0;
#X connect 7 0 9 0;
#X connect 7 0 10 0;
#X connect 8 0 0 0;
#X connect 8 1 0 2;
#X connect 9 0 0 0;
#X connect 9 1 0 3;
#X connect 14 0 4 0;
#X connect 15 0 5 0;
#X connect 16 0 6 0;
#X connect 17 0 7 0;
#X restore 95 578 pd color;
#X obj 44 638 pix_texture;
#X obj 180 576 loadbang;
#X obj 145 480 loadbang;
#X msg 145 499 1;
#X obj 44 701 rectangle 5.334 4;
#X obj 44 122 tgl 19 0 empty empty Gem 0 -6 0 8 -258699 -1 -1 0 1;
#X obj 493 548 cnv 15 390 200 empty empty Affichage 20 12 0 14 -195568
-66577 0;
#N canvas 997 445 706 556 Gestion_Affichage 0;
#N canvas 894 211 558 738 GemWin_Benj 0;
#X msg 75 111 create \, 1;
#X msg 61 54 stereo 2;
#X msg 53 34 border 0;
#X msg -35 95 dimen 800 600;
#X msg -35 112 offset 0 0;
#X msg -35 130 dimen 400 300;
#X msg -35 148 fullscreen 1;
#X msg -35 77 offset 1024 0;
#X msg -35 166 fullscreen 0;
#X msg -35 184 lighting 1;
#X msg -35 201 lighting 0;
#X msg -36 215 dimen 200 150;
#X msg -35 235 cursor 0;
#X msg -35 253 cursor 1;
#X msg 62 77 stereo 0;
#X msg 74 132 destroy \, 0;
#X msg 55 151 dimen 1024 768;
#X msg -35 272 dimen 1024 768;
#X obj 126 11 inlet;
#X obj 150 77 key;
#X obj 150 117 bng 15 250 50 0 empty empty empty 0 -6 0 8 -262144 -1
-1;
#X msg -31 34 border 1;
#X obj 150 97 select 27;
#X obj 131 450 t a;
#X obj 152 482 route dimen;
#X obj 152 504 s dimengemwin;
#X obj 131 536 gemwin 25;
#X connect 0 0 23 0;
#X connect 1 0 23 0;
#X connect 2 0 23 0;
#X connect 3 0 23 0;
#X connect 4 0 23 0;
#X connect 5 0 23 0;
#X connect 6 0 23 0;
#X connect 7 0 23 0;
#X connect 8 0 23 0;
#X connect 9 0 23 0;
#X connect 10 0 23 0;
#X connect 11 0 23 0;
#X connect 12 0 23 0;
#X connect 13 0 23 0;
#X connect 14 0 23 0;
#X connect 15 0 23 0;
#X connect 16 0 23 0;
#X connect 17 0 23 0;
#X connect 18 0 23 0;
#X connect 19 0 22 0;
#X connect 20 0 15 0;
#X connect 21 0 23 0;
#X connect 22 0 20 0;
#X connect 23 0 24 0;
#X connect 23 0 26 0;
#X connect 24 0 25 0;
#X restore -39 235 pd GemWin_Benj;
#X msg 133 97 create \, 1;
#X msg -39 10 dimen 400 300;
#X msg -39 -23 dimen 1024 768;
#X msg -39 76 offset 1024 0;
#X msg -39 116 cursor 0;
#X msg -39 156 view 4 0 0 0 0 0 0 1 0;
#X msg 134 122 destroy \, 0;
#X msg -39 43 offset 1280 0;
#X msg -39 93 offset 0 0;
#X obj 124 158 vsl 8 50 0 1 0 0 empty empty empty 0 -8 0 8 -258699
-1 -1 0 1;
#X obj 132 158 vsl 8 50 0 1 0 0 empty empty empty 0 -8 0 8 -24198 -1
-1 0 1;
#X obj 140 158 vsl 8 50 0 1 0 0 empty empty empty 0 -8 0 8 -355 -1
-1 0 1;
#N canvas 0 50 466 316 colgem 0;
#X obj 26 145 bng 15 250 50 0 empty empty empty 0 -6 0 8 -262144 -1
-1;
#X obj 41 144 t b f;
#X obj 41 35 vsl 8 50 0 1 0 0 empty empty empty 0 -8 0 8 -258699 -1
-1 0 1;
#X obj 49 35 vsl 8 50 0 1 0 0 empty empty empty 0 -8 0 8 -24198 -1
-1 0 1;
#X obj 57 35 vsl 8 50 0 1 0 0 empty empty empty 0 -8 0 8 -355 -1 -1
0 1;
#X obj 63 167 t b f;
#X floatatom 67 101 5 0 0 0 - - -, f 5;
#X floatatom 53 115 5 0 0 0 - - -, f 5;
#X floatatom 35 129 5 0 0 0 - - -, f 5;
#X obj 17 7 inlet;
#X obj 52 7 inlet;
#X obj 87 7 inlet;
#X obj 44 261 outlet;
#X obj 44 212 pack f f f;
#X msg 44 236 color \$1 \$2 \$3;
#X connect 0 0 13 0;
#X connect 1 0 13 0;
#X connect 1 1 13 1;
#X connect 2 0 8 0;
#X connect 2 0 13 0;
#X connect 3 0 1 0;
#X connect 3 0 7 0;
#X connect 4 0 5 0;
#X connect 4 0 6 0;
#X connect 5 0 13 0;
#X connect 5 1 13 2;
#X connect 9 0 2 0;
#X connect 10 0 3 0;
#X connect 11 0 4 0;
#X connect 13 0 14 0;
#X connect 14 0 12 0;
#X restore 115 218 pd colgem;
#X msg -39 173 view 0 4 0 0 0 0 0 1 0;
#X msg -39 133 cursor 1;
#X msg -39 59 offset 1680 0;
#X obj 115 -14 inlet;
#X obj 115 64 t b b b b;
#X obj 115 23 select 1;
#X msg -40 -6 dimen 1280 1024;
#X obj 231 99 t b b;
#X msg -40 190 view 0 0 4 0 0 0 0 1 0;
#X text 8 208 default;
#X msg -40 26 dimen 800 600;
#X msg 111 250 border 1;
#X msg 6 267 offset 0 0;
#X msg 4 284 dimen 800 600;
#X msg 5 307 border 1;
#X obj 196 190 t a;
#X obj 196 143 loadbang;
#X obj 382 35 gemkeyboard;
#X floatatom 382 73 5 0 0 1 keyCode - -, f 5;
#X obj 382 94 sel 9;
#X obj 545 34 key;
#X floatatom 545 62 5 0 0 1 keyCode - -, f 5;
#X obj 545 83 sel 27;
#X msg 274 350 dimen 1280 480 \, border 1 \, offset 0 0 \, cursor 0
\, create \, 1;
#X msg 196 165 0;
#X msg 265 397 dimen 2560 960 \, border 1 \, offset 0 0 \, cursor 0
\, create \, 1;
#X msg 114 495 dimen 2048 768 \, border 0 \, offset 1920 0 \, cursor
0 \, create \, 1;
#X msg 211 457 dimen 2560 1024 \, border 0 \, offset 1920 0 \, cursor
0 \, topmost 1 \, create \, 1;
#X msg 264 239 dimen 960 540 \, border 1 \, offset 0 0 \, cursor 1
\, create \, 1;
#X msg 268 303 dimen 800 600 \, border 1 \, cursor 1 \, create \, 1
;
#X msg 274 195 dimen 1920 1080 \, border 0 \, cursor 0 \, create \,
1;
#X obj 264 -19 inlet;
#X connect 1 0 0 0;
#X connect 2 0 0 0;
#X connect 3 0 0 0;
#X connect 4 0 0 0;
#X connect 5 0 0 0;
#X connect 6 0 0 0;
#X connect 7 0 0 0;
#X connect 8 0 0 0;
#X connect 9 0 0 0;
#X connect 10 0 13 0;
#X connect 11 0 13 1;
#X connect 12 0 13 2;
#X connect 13 0 0 0;
#X connect 14 0 0 0;
#X connect 15 0 0 0;
#X connect 16 0 0 0;
#X connect 17 0 19 0;
#X connect 18 3 44 0;
#X connect 19 0 18 0;
#X connect 19 1 21 0;
#X connect 20 0 0 0;
#X connect 21 0 7 0;
#X connect 21 1 7 0;
#X connect 22 0 0 0;
#X connect 24 0 0 0;
#X connect 25 0 0 0;
#X connect 26 0 0 0;
#X connect 27 0 0 0;
#X connect 28 0 0 0;
#X connect 29 0 10 0;
#X connect 29 0 11 0;
#X connect 29 0 12 0;
#X connect 30 0 38 0;
#X connect 31 0 32 0;
#X connect 32 0 33 0;
#X connect 33 0 7 0;
#X connect 34 0 35 0;
#X connect 35 0 36 0;
#X connect 36 0 7 0;
#X connect 37 0 0 0;
#X connect 38 0 29 0;
#X connect 39 0 0 0;
#X connect 40 0 0 0;
#X connect 41 0 0 0;
#X connect 42 0 0 0;
#X connect 43 0 0 0;
#X connect 44 0 0 0;
#X connect 45 0 42 0;
#X restore 605 670 pd Gestion_Affichage;
#X obj 605 635 tgl 29 0 empty empty Affichage-ON_OFF 0 -6 0 8 -24198
-258699 -1 1 1;
#N canvas 1 202 1009 711 playlist_player 0;
#X msg 179 36 seek \$1;
#X floatatom 241 38 5 0 0 0 - - -, f 5;
#X msg 140 65 sort \$1;
#X obj 201 66 tgl 15 0 empty empty empty 0 -6 0 8 -262144 -1 -1 0 1
;
#X obj 35 72 loadbang;
#X msg 185 122 scroll 200;
#X msg -114 465 bang;
#X obj -151 627 msgfile;
#N canvas 76 237 646 300 navigation 0;
#X obj 54 272 outlet;
#X msg 91 140 rewind;
#X text 140 139 go to beginning;
#X msg 92 163 end;
#X text 139 163 go the the end;
#X msg 92 214 skip -1;
#X msg 92 238 where;
#X text 145 237 where are we now ?;
#X text 146 214 go to the <n>th line from here;
#X text 142 188 go to line number <n>;
#X text 44 38 navigating through the lines of a [msgfile];
#X text 42 62 these messages will not output any data;
#X text 41 96 'where' will output the position of the "cursor" at the
2nd outlet of [msgfile];
#X msg 92 189 goto 8;
#X connect 1 0 0 0;
#X connect 3 0 0 0;
#X connect 5 0 0 0;
#X connect 6 0 0 0;
#X connect 13 0 0 0;
#X restore -114 510 pd navigation;
#N canvas 707 298 458 426 data 0;
#X obj 54 332 outlet;
#X msg 105 143 bang;
#X msg 103 231 next;
#X msg 102 189 prev;
#X msg 103 210 this;
#X text 154 140 output one line as a list and move to the next;
#X text 151 189 output the previous line;
#X text 153 229 output the next line;
#X text 151 209 output the current line;
#X msg 104 264 flush;
#X text 153 263 output all lines;
#X text 39 37 get the contents of the [msgfile] line-by-line;
#X text 37 63 'prev' \, 'this' \, 'next' and 'flush' will not alter
the current "cursor" position.;
#X connect 1 0 0 0;
#X connect 2 0 0 0;
#X connect 3 0 0 0;
#X connect 4 0 0 0;
#X connect 9 0 0 0;
#X restore -114 490 pd data retrieval;
#N canvas 489 234 669 573 editing 0;
#X obj 54 512 outlet;
#X msg 137 101 clear;
#X msg 140 481 set 2 4 6 8;
#X text 246 480 clear and then add one message;
#X msg 136 258 add cis boom bah;
#X msg 136 277 add2 bang;
#X text 190 102 empty the object;
#X msg 137 161 delete 2;
#X text 272 303 insert a message before the current line;
#X text 238 255 add a message at the end of the object;
#X msg 137 359 append after the break of dawn;
#X text 331 356 add a message at the current position;
#X msg 138 437 replace the new day;
#X text 330 437 replace the current line;
#X msg 136 306 insert before sunrise;
#X msg 136 325 insert2 inserted;
#X msg 137 378 append2 appendix;
#X msg 137 141 delete;
#X text 191 142 delete the current line;
#X text 194 161 delete the specified line;
#X msg 137 180 delete 4 7;
#X text 205 181 delete the specified region;
#X msg 137 200 delete 7 4;
#X text 208 200 delete all but the specified region;
#X text 56 39 editing (adding \, modifying \, deleting) the content
if the [msgfile];
#X text 237 275 add to the last line (INCOMPATIBLE with [textfile])
;
#X text 275 325 add to the previous line (INCOMPATIBLE with [textfile])
;
#X text 330 379 add to the current line (INCOMPATIBLE with [textfile])
;
#X connect 1 0 0 0;
#X connect 2 0 0 0;
#X connect 4 0 0 0;
#X connect 5 0 0 0;
#X connect 7 0 0 0;
#X connect 10 0 0 0;
#X connect 12 0 0 0;
#X connect 14 0 0 0;
#X connect 15 0 0 0;
#X connect 16 0 0 0;
#X connect 17 0 0 0;
#X connect 20 0 0 0;
#X connect 22 0 0 0;
#X restore -114 530 pd editing;
#N canvas 0 50 676 304 searching 0;
#X obj 54 272 outlet;
#X msg 70 180 find test 6;
#X msg 70 239 find test * 7 *;
#X text 73 61 searching (and finding) lines within the [msgfile];
#X text 177 241 you can use '*' as a wildchard for a single atom. '*'
is the only wildcard supported;
#X text 174 178 find a matching list \, starting at the current position
;
#X msg 72 208 find the new day;
#X text 76 130 if the search fails \, a 'bang' is emitted at the 2nd
outlet;
#X text 77 99 if the searched list is found \, then the linenumber
and the list is output (via the 2nd and 1st outlet).;
#X connect 1 0 0 0;
#X connect 2 0 0 0;
#X connect 6 0 0 0;
#X restore -114 550 pd searching;
#N canvas 575 306 853 402 file-i/o 0;
#X obj 54 312 outlet;
#X text 265 75 read a file;
#X text 299 96 write one;
#X text 305 164 write a file \, terminating lines only with carriage
return (omitting semicolons.) You can read files this way too \, in
which case carriage returns are mapped to semicolons.;
#X msg 87 76 read msgfile.txt;
#X msg 87 168 write /tmp/msgfile2.txt cr;
#X msg 87 191 read msgfile2.txt cr;
#X msg 87 97 write /tmp/msgfile.txt;
#X text 51 26 reading from and writing the contents of [msgfile] to
files;
#X msg 111 248 write /tmp/msgfile3.txt $$;
#X text 331 238 on writing replace every occurence of $$ with a single
$. This way you can write pd-patches which can handle arguments.;
#X msg 146 291 add #X obj f $\\\$1;
#X msg 92 130 read2 msgfile.txt;
#X text 264 131 read file and append it to the current buffer;
#X connect 4 0 0 0;
#X connect 5 0 0 0;
#X connect 6 0 0 0;
#X connect 7 0 0 0;
#X connect 9 0 0 0;
#X connect 11 0 0 0;
#X connect 12 0 0 0;
#X restore -114 570 pd file-i/o;
#N canvas 56 448 450 397 misc 0;
#X obj 84 282 outlet;
#X msg 84 112 print;
#X text 40 72 miscellaneous functionality of [msgfile];
#X text 126 114 debugging printout of the contents to the console;
#X connect 1 0 0 0;
#X restore -114 590 pd misc;
#X text -183 450 clear;
#X obj -190 338 bng 29 250 50 0 empty empty empty 17 7 0 10 -258113
-4034 -1;
#X msg -174 469 clear;
#X msg -40 593 delete;
#X msg -125 125 location /media/Docs/Vid_gnirut-test/bacteria;
#X obj -190 373 openpanel;
#X msg -190 414 read \$1 cr;
#X msg 35 97 location /media/Docs/Vid_gnirut-test/patch/playlist;
#X obj -187 216 inlet;
#X obj -100 220 inlet;
#X obj 284 251 inlet;
#X obj -151 689 outlet;
#X obj -112 663 print playlistdone;
#X msg 39 311 next;
#X msg 38 269 prev;
#X obj 126 215 loadbang;
#X msg 126 248 read VIDEOS.txt cr;
#X msg 161 392 goto \$1;
#X floatatom 274 372 5 0 0 0 - - -, f 5;
#X msg 35 480 this;
#X obj -101 339 bng 15 250 50 0 empty empty empty 17 7 0 10 -262144
-1 -1;
#X obj 111 446 t b a;
#X connect 1 0 0 0;
#X connect 3 0 2 0;
#X connect 4 0 21 0;
#X connect 6 0 7 0;
#X connect 7 0 25 0;
#X connect 7 1 26 0;
#X connect 8 0 7 0;
#X connect 9 0 7 0;
#X connect 10 0 7 0;
#X connect 11 0 7 0;
#X connect 12 0 7 0;
#X connect 13 0 7 0;
#X connect 15 0 19 0;
#X connect 16 0 7 0;
#X connect 17 0 7 0;
#X connect 19 0 20 0;
#X connect 20 0 7 0;
#X connect 22 0 15 0;
#X connect 23 0 34 0;
#X connect 24 0 31 0;
#X connect 27 0 7 0;
#X connect 28 0 7 0;
#X connect 29 0 30 0;
#X connect 30 0 7 0;
#X connect 31 0 35 0;
#X connect 32 0 31 0;
#X connect 33 0 7 0;
#X connect 34 0 6 0;
#X connect 35 0 33 0;
#X connect 35 1 7 0;
#X restore 147 154 pd playlist_player;
#X obj 147 131 bng 15 250 50 0 empty empty Load 17 7 0 10 -258113 -4034
-1;
#X obj 208 133 bng 15 250 50 0 empty empty empty 17 7 0 10 -262144
-1 -1;
#X symbolatom 147 178 32 0 0 0 - - -, f 32;
#X obj 293 6 bng 29 250 50 0 empty empty empty 17 7 0 10 -258113 -4034
-1;
#X obj 1021 140 tgl 19 0 empty empty Gem 0 -6 0 8 -258699 -1 -1 0 1
;
#X obj 1021 649 alpha;
#X obj 960 634 tgl 15 1 empty empty empty 0 -6 0 8 -262144 -1 -1 1
1;
#X obj 1021 670 color;
#X obj 1152 593 vsl 8 50 0 1 0 0 empty empty empty 0 -8 0 8 -258699
-1 -1 4900 1;
#X obj 1160 593 vsl 8 50 0 1 0 0 empty empty empty 0 -8 0 8 -24198
-1 -1 4900 1;
#X obj 1168 593 vsl 8 50 0 1 0 0 empty empty empty 0 -8 0 8 -355 -1
-1 4900 1;
#X obj 1176 593 vsl 8 50 0 1 0 0 empty empty empty 0 -8 0 8 -195568
-1 -1 0 1;
#N canvas 1 110 452 302 color 0;
#X obj 44 212 pack f f f f;
#X msg 44 236 \$1 \$2 \$3 \$4;
#X obj 26 145 bng 15 250 50 0 empty empty empty 0 -6 0 8 -262144 -1
-1;
#X obj 41 144 t b f;
#X obj 41 35 vsl 8 50 0 1 0 0 empty empty empty 0 -8 0 8 -258699 -1
-1 4900 1;
#X obj 49 35 vsl 8 50 0 1 0 0 empty empty empty 0 -8 0 8 -24198 -1
-1 4900 1;
#X obj 57 35 vsl 8 50 0 1 0 0 empty empty empty 0 -8 0 8 -355 -1 -1
4900 1;
#X obj 65 35 vsl 8 50 0 1 0 0 empty empty empty 0 -8 0 8 -195568 -1
-1 0 1;
#X obj 63 167 t b f;
#X obj 86 189 t b f;
#X floatatom 77 86 5 0 0 0 - - -, f 5;
#X floatatom 67 101 5 0 0 0 - - -, f 5;
#X floatatom 53 115 5 0 0 0 - - -, f 5;
#X floatatom 35 129 5 0 0 0 - - -, f 5;
#X obj 17 7 inlet;
#X obj 52 7 inlet;
#X obj 87 7 inlet;
#X obj 122 8 inlet;
#X obj 44 261 outlet;
#X connect 0 0 1 0;
#X connect 1 0 18 0;
#X connect 2 0 0 0;
#X connect 3 0 0 0;
#X connect 3 1 0 1;
#X connect 4 0 0 0;
#X connect 4 0 13 0;
#X connect 5 0 3 0;
#X connect 5 0 12 0;
#X connect 6 0 8 0;
#X connect 6 0 11 0;
#X connect 7 0 9 0;
#X connect 7 0 10 0;
#X connect 8 0 0 0;
#X connect 8 1 0 2;
#X connect 9 0 0 0;
#X connect 9 1 0 3;
#X connect 14 0 4 0;
#X connect 15 0 5 0;
#X connect 16 0 6 0;
#X connect 17 0 7 0;
#X restore 1143 653 pd color;
#X msg 1152 548 1;
#X floatatom 1098 709 5 0 0 0 - - -, f 5;
#X floatatom 1138 709 5 0 0 0 - - -, f 5;
#X floatatom 1098 674 5 0 0 0 - - -, f 5;
#X obj 1021 693 pix_texture;
#X obj 934 154 bng 15 250 50 0 empty empty pix_load 20 8 0 8 -24198
-258699 -1;
#X obj 1021 255 pix_film;
#X msg 934 196 open \$1;
#X obj 934 177 openpanel;
#X floatatom 1074 237 5 0 0 0 - - -, f 5;
#X obj 1047 364 unpack 0 0 0;
#X floatatom 1047 386 5 0 0 3 length - -, f 5;
#X floatatom 1094 386 5 0 0 3 width - -, f 5;
#X floatatom 1128 386 5 0 0 3 height - -, f 5;
#X obj 1066 302 bng 15 250 50 0 empty empty La_Fin 20 7 0 8 -1 -262144
-1;
#X msg 1179 548 0;
#X obj 1166 522 loadbang;
#X floatatom 1099 474 5 0 0 0 - - -, f 5;
#X floatatom 1140 474 5 0 0 0 - - -, f 5;
#X floatatom 1059 474 5 0 0 0 - - -, f 5;
#X obj 1173 683 * 1080;
#X obj 1173 701 / 1920;
#X obj 1021 723 rectangle 5.334 3;
#X msg 1074 214 0;
#X obj 44 154 gemhead 51;
#X obj 44 265 pix_film;
#X obj 70 335 unpack 0 0 0;
#X floatatom 70 357 5 0 0 3 length - -, f 5;
#X floatatom 117 357 5 0 0 3 width - -, f 5;
#X floatatom 159 357 5 0 0 3 height - -, f 5;
#X obj 1021 491 translateXYZ 0 0 0;
#X floatatom 107 248 5 0 0 0 - - -, f 5;
#X obj 144 641 * 1080;
#X obj 143 661 / 1920;
#X msg 180 596 7.11;
#X msg 108 223 open ../VIDEO/\$1;
#X obj 97 291 bng 15 250 50 0 empty empty empty 17 7 0 10 -262144 -1
-1;
#X floatatom 293 62 5 0 0 0 - - -, f 5;
#X obj 272 247 t b b;
#X msg 263 277 1;
#X floatatom 609 425 5 0 0 0 - - -, f 5;
#X floatatom 650 425 5 0 0 0 - - -, f 5;
#X floatatom 569 425 5 0 0 0 - - -, f 5;
#X obj 531 145 tgl 19 0 empty empty Gem 0 -6 0 8 -258699 -1 -1 0 1
;
#N canvas 0 81 1280 919 playlist_player 0;
#X msg 179 36 seek \$1;
#X floatatom 241 38 5 0 0 0 - - -, f 5;
#X msg 140 65 sort \$1;
#X obj 201 66 tgl 15 0 empty empty empty 0 -6 0 8 -262144 -1 -1 0 1
;
#X obj 35 72 loadbang;
#X msg 185 122 scroll 200;
#X msg -114 465 bang;
#X obj -151 627 msgfile;
#N canvas 76 237 646 300 navigation 0;
#X obj 54 272 outlet;
#X msg 91 140 rewind;
#X text 140 139 go to beginning;
#X msg 92 163 end;
#X text 139 163 go the the end;
#X msg 92 214 skip -1;
#X msg 92 238 where;
#X text 145 237 where are we now ?;
#X text 146 214 go to the <n>th line from here;
#X text 142 188 go to line number <n>;
#X text 44 38 navigating through the lines of a [msgfile];
#X text 42 62 these messages will not output any data;
#X text 41 96 'where' will output the position of the "cursor" at the
2nd outlet of [msgfile];
#X msg 92 189 goto 8;
#X connect 1 0 0 0;
#X connect 3 0 0 0;
#X connect 5 0 0 0;
#X connect 6 0 0 0;
#X connect 13 0 0 0;
#X restore -114 510 pd navigation;
#N canvas 707 298 458 426 data 0;
#X obj 54 332 outlet;
#X msg 105 143 bang;
#X msg 103 231 next;
#X msg 102 189 prev;
#X msg 103 210 this;
#X text 154 140 output one line as a list and move to the next;
#X text 151 189 output the previous line;
#X text 153 229 output the next line;
#X text 151 209 output the current line;
#X msg 104 264 flush;
#X text 153 263 output all lines;
#X text 39 37 get the contents of the [msgfile] line-by-line;
#X text 37 63 'prev' \, 'this' \, 'next' and 'flush' will not alter
the current "cursor" position.;
#X connect 1 0 0 0;
#X connect 2 0 0 0;
#X connect 3 0 0 0;
#X connect 4 0 0 0;
#X connect 9 0 0 0;
#X restore -114 490 pd data retrieval;
#N canvas 489 234 669 573 editing 0;
#X obj 54 512 outlet;
#X msg 137 101 clear;
#X msg 140 481 set 2 4 6 8;
#X text 246 480 clear and then add one message;
#X msg 136 258 add cis boom bah;
#X msg 136 277 add2 bang;
#X text 190 102 empty the object;
#X msg 137 161 delete 2;
#X text 272 303 insert a message before the current line;
#X text 238 255 add a message at the end of the object;
#X msg 137 359 append after the break of dawn;
#X text 331 356 add a message at the current position;
#X msg 138 437 replace the new day;
#X text 330 437 replace the current line;
#X msg 136 306 insert before sunrise;
#X msg 136 325 insert2 inserted;
#X msg 137 378 append2 appendix;
#X msg 137 141 delete;
#X text 191 142 delete the current line;
#X text 194 161 delete the specified line;
#X msg 137 180 delete 4 7;
#X text 205 181 delete the specified region;
#X msg 137 200 delete 7 4;
#X text 208 200 delete all but the specified region;
#X text 56 39 editing (adding \, modifying \, deleting) the content
if the [msgfile];
#X text 237 275 add to the last line (INCOMPATIBLE with [textfile])
;
#X text 275 325 add to the previous line (INCOMPATIBLE with [textfile])
;
#X text 330 379 add to the current line (INCOMPATIBLE with [textfile])
;
#X connect 1 0 0 0;
#X connect 2 0 0 0;
#X connect 4 0 0 0;
#X connect 5 0 0 0;
#X connect 7 0 0 0;
#X connect 10 0 0 0;
#X connect 12 0 0 0;
#X connect 14 0 0 0;
#X connect 15 0 0 0;
#X connect 16 0 0 0;
#X connect 17 0 0 0;
#X connect 20 0 0 0;
#X connect 22 0 0 0;
#X restore -114 530 pd editing;
#N canvas 0 50 676 304 searching 0;
#X obj 54 272 outlet;
#X msg 70 180 find test 6;
#X msg 70 239 find test * 7 *;
#X text 73 61 searching (and finding) lines within the [msgfile];
#X text 177 241 you can use '*' as a wildchard for a single atom. '*'
is the only wildcard supported;
#X text 174 178 find a matching list \, starting at the current position
;
#X msg 72 208 find the new day;
#X text 76 130 if the search fails \, a 'bang' is emitted at the 2nd
outlet;
#X text 77 99 if the searched list is found \, then the linenumber
and the list is output (via the 2nd and 1st outlet).;
#X connect 1 0 0 0;
#X connect 2 0 0 0;
#X connect 6 0 0 0;
#X restore -114 550 pd searching;
#N canvas 575 306 853 402 file-i/o 0;
#X obj 54 312 outlet;
#X text 265 75 read a file;
#X text 299 96 write one;
#X text 305 164 write a file \, terminating lines only with carriage
return (omitting semicolons.) You can read files this way too \, in
which case carriage returns are mapped to semicolons.;
#X msg 87 76 read msgfile.txt;
#X msg 87 168 write /tmp/msgfile2.txt cr;
#X msg 87 191 read msgfile2.txt cr;
#X msg 87 97 write /tmp/msgfile.txt;
#X text 51 26 reading from and writing the contents of [msgfile] to
files;
#X msg 111 248 write /tmp/msgfile3.txt $$;
#X text 331 238 on writing replace every occurence of $$ with a single
$. This way you can write pd-patches which can handle arguments.;
#X msg 146 291 add #X obj f $\\\$1;
#X msg 92 130 read2 msgfile.txt;
#X text 264 131 read file and append it to the current buffer;
#X connect 4 0 0 0;
#X connect 5 0 0 0;
#X connect 6 0 0 0;
#X connect 7 0 0 0;
#X connect 9 0 0 0;
#X connect 11 0 0 0;
#X connect 12 0 0 0;
#X restore -114 570 pd file-i/o;
#N canvas 56 448 450 397 misc 0;
#X obj 84 282 outlet;
#X msg 84 112 print;
#X text 40 72 miscellaneous functionality of [msgfile];
#X text 126 114 debugging printout of the contents to the console;
#X connect 1 0 0 0;
#X restore -114 590 pd misc;
#X text -183 450 clear;
#X obj -190 338 bng 29 250 50 0 empty empty empty 17 7 0 10 -258113
-4034 -1;
#X msg -174 469 clear;
#X msg -40 593 delete;
#X msg -125 125 location /media/Docs/Vid_gnirut-test/bacteria;
#X obj -190 373 openpanel;
#X msg -190 414 read \$1 cr;
#X msg 35 97 location /media/Docs/Vid_gnirut-test/patch/playlist;
#X obj -187 216 inlet;
#X obj -100 220 inlet;
#X obj 284 251 inlet;
#X obj -151 689 outlet;
#X obj -112 663 print playlistdone;
#X msg 39 311 next;
#X msg 38 269 prev;
#X obj 126 215 loadbang;
#X msg 161 392 goto \$1;
#X floatatom 274 372 5 0 0 0 - - -, f 5;
#X msg 35 480 this;
#X obj -101 339 bng 15 250 50 0 empty empty empty 17 7 0 10 -262144
-1 -1;
#X obj 111 446 t b a;
#X msg 126 248 read TITRES.txt cr;
#X connect 1 0 0 0;
#X connect 3 0 2 0;
#X connect 4 0 21 0;
#X connect 6 0 7 0;
#X connect 7 0 25 0;
#X connect 7 1 26 0;
#X connect 8 0 7 0;
#X connect 9 0 7 0;
#X connect 10 0 7 0;
#X connect 11 0 7 0;
#X connect 12 0 7 0;
#X connect 13 0 7 0;
#X connect 15 0 19 0;
#X connect 16 0 7 0;
#X connect 17 0 7 0;
#X connect 19 0 20 0;
#X connect 20 0 7 0;
#X connect 22 0 15 0;
#X connect 23 0 33 0;
#X connect 24 0 30 0;
#X connect 27 0 7 0;
#X connect 28 0 7 0;
#X connect 29 0 35 0;
#X connect 30 0 34 0;
#X connect 31 0 30 0;
#X connect 32 0 7 0;
#X connect 33 0 6 0;
#X connect 34 0 32 0;
#X connect 34 1 7 0;
#X connect 35 0 7 0;
#X restore 623 172 pd playlist_player;
#X obj 623 149 bng 15 250 50 0 empty empty Load 17 7 0 10 -258113 -4034
-1;
#X obj 684 150 bng 15 250 50 0 empty empty empty 17 7 0 10 -262144
-1 -1;
#X symbolatom 623 198 32 0 0 0 - - -, f 32;
#X obj 757 103 bng 29 250 50 0 empty empty empty 17 7 0 10 -258113
-4034 -1;
#X obj 531 288 pix_film;
#X obj 531 442 translateXYZ 0 0 0;
#X obj 557 358 unpack 0 0 0;
#X floatatom 557 380 5 0 0 3 length - -, f 5;
#X floatatom 604 380 5 0 0 3 width - -, f 5;
#X floatatom 647 381 5 0 0 3 height - -, f 5;
#X floatatom 594 271 5 0 0 0 - - -, f 5;
#X obj 584 312 bng 15 250 50 0 empty empty empty 17 7 0 10 -262144
-1 -1;
#X floatatom 757 158 5 0 0 0 - - -, f 5;
#X obj 550 212 t b b a;
#X obj 401 170 t b b;
#X msg 393 190 1;
#X obj 303 652 netsend;
#X msg 320 629 connect localhost 3000;
#X floatatom 312 557 0 0 0 0 - - -;
#X msg 318 606 disconnect;
#X floatatom 303 679 0 0 0 0 - - -;
#X msg 303 583 send \$1;
#X obj 605 578 loadbang;
#X obj 44 478 pix_add;
#N canvas 862 218 1029 711 playlist_player 0;
#X msg -114 465 bang;
#X obj -151 627 msgfile;
#X text -183 450 clear;
#X obj -190 338 bng 29 250 50 0 empty empty empty 17 7 0 10 -258113
-4034 -1;
#X msg -174 469 clear;
#X obj -190 373 openpanel;
#X msg -190 414 read \$1 cr;
#X obj -187 216 inlet;
#X obj -100 220 inlet;
#X obj 284 251 inlet;
#X obj -151 689 outlet;
#X obj -112 663 print playlistdone;
#X obj 126 215 loadbang;
#X msg 161 392 goto \$1;
#X floatatom 274 372 5 0 0 0 - - -, f 5;
#X msg 35 480 this;
#X obj -101 339 bng 15 250 50 0 empty empty empty 17 7 0 10 -262144
-1 -1;
#X obj 111 446 t b a;
#X msg 126 248 read CUTS.txt cr;
#X connect 0 0 1 0;
#X connect 1 0 10 0;
#X connect 1 1 11 0;
#X connect 3 0 5 0;
#X connect 4 0 1 0;
#X connect 5 0 6 0;
#X connect 6 0 1 0;
#X connect 7 0 3 0;
#X connect 8 0 16 0;
#X connect 9 0 13 0;
#X connect 12 0 18 0;
#X connect 13 0 17 0;
#X connect 14 0 13 0;
#X connect 15 0 1 0;
#X connect 16 0 0 0;
#X connect 17 0 15 0;
#X connect 17 1 1 0;
#X connect 18 0 1 0;
#X restore 1136 97 pd playlist_player;
#X obj 1136 74 bng 15 250 50 0 empty empty Load 17 7 0 10 -258113 -4034
-1;
#X obj 1197 77 bng 15 250 50 0 empty empty empty 17 7 0 10 -262144
-1 -1;
#X symbolatom 1135 118 32 0 0 0 - - -, f 32;
#X obj 1275 26 bng 29 250 50 0 empty empty empty 17 7 0 10 -258113
-4034 -1;
#X floatatom 1275 83 5 0 0 0 - - -, f 5;
#X obj 1085 178 t b b a;
#X obj 1077 606 loadbang;
#X msg 1077 626 7.11;
#X msg 1131 201 open ../CUTS/\$1;
#X obj 1254 195 t b b;
#X msg 1254 216 1;
#X obj 1088 326 s cutsOFF;
#X obj 1591 174 f;
#X obj 1616 174 + 1;
#X obj 1591 91 tgl 15 0 empty empty empty 0 -6 0 8 -262144 -1 -1 1
1;
#X floatatom 1648 90 5 0 0 0 - - -, f 5;
#X msg 1606 146 0;
#X obj 1591 113 metro 1000;
#X floatatom 1591 204 5 0 0 0 - - -, f 5;
#X obj 1591 33 loadbang;
#X obj 1591 244 sel 600;
#X obj 1651 221 random 200;
#X obj 1651 245 + 600;
#X obj 1651 201 bng 15 250 50 0 empty empty empty 17 7 0 10 -262144
-1 -1;
#X obj 1591 330 s cutsON;
#X obj 1591 292 bng 29 250 50 0 empty empty empty 17 7 0 10 -258113
-4034 -1;
#X text 1017 49 CUTS;
#X text 600 37 INCRUSTATIONS;
#X text 147 46 VIDEOS;
#X floatatom 1637 147 5 0 0 0 - - -, f 5;
#X obj 1719 184 t b b;
#X floatatom 1651 270 5 0 0 0 - - -, f 5;
#X msg 468 175 0;
#X obj 468 145 r cutsON;
#X obj 263 205 r cutsOFF;
#X obj 393 144 r cutsOFF;
#X obj 1021 164 gemhead 53;
#X msg 1210 493 0.7;
#X msg 343 555 send CUTS \$1;
#X obj 1591 269 change;
#X msg 326 250 0;
#X msg 1255 238 0;
#X obj 402 361 bng 29 250 50 0 empty empty Connect_Audio 32 7 0 10
-258113 -4034 -1;
#X msg 596 236 open ../TITRES/\$1;
#X obj 531 177 gemhead 52;
#X obj 1066 277 t b b b;
#X msg 343 503 1;
#X obj 343 480 r cutsOFF;
#X obj 383 502 r cutsON;
#X msg 383 527 0;
#X obj 326 225 r cutsON;
#X obj 62 192 t b b a;
#X obj 440 15 loadbang;
#X obj 742 633 bng 32 250 50 0 empty empty Petit_Affichage 40 7 0 10
-4034 -1 -1;
#X obj 440 86 delay 500;
#X obj 263 129 f;
#X obj 258 87 t b f f;
#X obj 219 108 delay 50;
#X msg 263 321 auto \$1;
#X obj 263 303 tgl 15 0 empty empty empty 0 -6 0 8 -262144 -1 -1 1
1;
#X msg 468 244 auto \$1;
#X obj 468 226 tgl 15 0 empty empty empty 0 -6 0 8 -262144 -1 -1 1
1;
#X msg 1297 238 auto \$1;
#X obj 1297 220 tgl 15 0 empty empty empty 0 -6 0 8 -262144 -1 -1 0
1;
#X obj 293 40 rtc/xrandom 76;
#X obj 1275 60 rtc/xrandom 3;
#X obj 757 137 rtc/xrandom 53;
#X obj 514 10 bng 45 250 50 0 empty empty All 17 -10 0 10 -258113 -4034
-1;
#X obj 888 78 ggee/shell;
#X msg 888 55 od -An -N2 -i /dev/random;
#X obj 888 118 s RTC-rs;
#X obj 440 38 t b b b;
#X floatatom 888 99 5 0 0 0 - - -, f 5;
#X obj 626 73 delay 100;
#X connect 2 0 6 0;
#X connect 3 0 16 1;
#X connect 4 0 16 2;
#X connect 5 0 3 0;
#X connect 5 0 67 0;
#X connect 6 0 12 0;
#X connect 7 0 11 0;
#X connect 8 0 11 1;
#X connect 9 0 11 2;
#X connect 10 0 11 3;
#X connect 11 0 6 1;
#X connect 12 0 16 0;
#X connect 13 0 69 0;
#X connect 14 0 15 0;
#X connect 15 0 7 0;
#X connect 15 0 8 0;
#X connect 15 0 9 0;
#X connect 15 0 10 0;
#X connect 17 0 59 0;
#X connect 20 0 19 0;
#X connect 21 0 24 0;
#X connect 22 0 21 0;
#X connect 23 0 21 1;
#X connect 24 0 156 0;
#X connect 25 0 169 0;
#X connect 26 0 141 0;
#X connect 27 0 29 0;
#X connect 28 0 27 0;
#X connect 29 0 39 0;
#X connect 30 0 34 0;
#X connect 31 0 34 1;
#X connect 32 0 34 2;
#X connect 33 0 34 3;
#X connect 34 0 29 1;
#X connect 35 0 30 0;
#X connect 35 0 31 0;
#X connect 35 0 32 0;
#X connect 36 0 57 1;
#X connect 37 0 57 2;
#X connect 38 0 36 0;
#X connect 38 0 55 0;
#X connect 39 0 57 0;
#X connect 40 0 43 0;
#X connect 41 0 65 0;
#X connect 41 1 45 0;
#X connect 41 2 150 0;
#X connect 42 0 41 0;
#X connect 43 0 42 0;
#X connect 44 0 41 1;
#X connect 45 0 46 0;
#X connect 45 1 47 0;
#X connect 45 2 48 0;
#X connect 49 0 50 0;
#X connect 49 0 116 0;
#X connect 50 0 33 0;
#X connect 51 0 35 0;
#X connect 51 0 50 0;
#X connect 52 0 65 2;
#X connect 53 0 65 3;
#X connect 54 0 65 1;
#X connect 55 0 56 0;
#X connect 56 0 37 0;
#X connect 58 0 44 0;
#X connect 59 0 60 0;
#X connect 60 0 103 0;
#X connect 60 1 61 0;
#X connect 60 2 71 0;
#X connect 61 0 62 0;
#X connect 61 1 63 0;
#X connect 61 2 64 0;
#X connect 65 0 27 0;
#X connect 66 0 60 1;
#X connect 67 0 68 0;
#X connect 68 0 4 0;
#X connect 69 0 5 0;
#X connect 70 0 60 0;
#X connect 71 0 25 0;
#X connect 72 0 161 0;
#X connect 73 0 74 0;
#X connect 74 0 164 0;
#X connect 75 0 85 2;
#X connect 76 0 85 3;
#X connect 77 0 85 1;
#X connect 78 0 149 0;
#X connect 79 0 82 0;
#X connect 80 0 79 0;
#X connect 81 0 79 1;
#X connect 82 0 93 0;
#X connect 83 0 171 0;
#X connect 84 0 85 0;
#X connect 84 1 86 0;
#X connect 84 2 91 0;
#X connect 85 0 103 1;
#X connect 86 0 87 0;
#X connect 86 1 88 0;
#X connect 86 2 89 0;
#X connect 90 0 84 1;
#X connect 91 0 83 0;
#X connect 92 0 79 2;
#X connect 93 1 94 0;
#X connect 93 2 148 0;
#X connect 94 0 95 0;
#X connect 95 0 166 0;
#X connect 96 0 100 0;
#X connect 97 0 96 0;
#X connect 98 0 101 0;
#X connect 99 0 96 0;
#X connect 101 0 96 0;
#X connect 102 0 20 0;
#X connect 103 0 2 0;
#X connect 104 0 107 0;
#X connect 105 0 104 0;
#X connect 106 0 104 1;
#X connect 107 0 110 0;
#X connect 108 0 170 0;
#X connect 109 0 104 2;
#X connect 110 1 114 0;
#X connect 110 2 113 0;
#X connect 111 0 112 0;
#X connect 112 0 38 0;
#X connect 113 0 41 0;
#X connect 114 0 115 0;
#X connect 115 0 168 0;
#X connect 117 0 118 0;
#X connect 117 0 123 0;
#X connect 118 0 117 1;
#X connect 119 0 122 0;
#X connect 120 0 122 1;
#X connect 121 0 117 1;
#X connect 122 0 117 0;
#X connect 123 0 125 0;
#X connect 124 0 119 0;
#X connect 125 0 144 0;
#X connect 126 0 127 0;
#X connect 127 0 136 0;
#X connect 128 0 126 0;
#X connect 130 0 135 0;
#X connect 130 0 129 0;
#X connect 130 0 142 0;
#X connect 130 0 108 0;
#X connect 134 0 117 1;
#X connect 135 0 128 0;
#X connect 135 1 121 0;
#X connect 136 0 125 1;
#X connect 137 0 166 0;
#X connect 138 0 137 0;
#X connect 139 0 74 0;
#X connect 140 0 95 0;
#X connect 141 0 41 0;
#X connect 142 0 33 0;
#X connect 143 0 96 0;
#X connect 144 0 130 0;
#X connect 145 0 164 0;
#X connect 146 0 168 0;
#X connect 147 0 97 0;
#X connect 148 0 84 0;
#X connect 149 0 84 0;
#X connect 150 0 49 0;
#X connect 150 2 146 0;
#X connect 151 0 143 0;
#X connect 152 0 151 0;
#X connect 153 0 154 0;
#X connect 154 0 143 0;
#X connect 155 0 145 0;
#X connect 156 1 73 0;
#X connect 156 2 70 0;
#X connect 157 0 176 0;
#X connect 158 0 19 1;
#X connect 159 0 25 0;
#X connect 159 0 83 0;
#X connect 160 0 21 2;
#X connect 161 1 160 0;
#X connect 161 2 101 0;
#X connect 163 0 60 0;
#X connect 164 0 163 0;
#X connect 165 0 84 0;
#X connect 166 0 165 0;
#X connect 167 0 41 0;
#X connect 168 0 167 0;
#X connect 169 0 72 0;
#X connect 170 0 109 0;
#X connect 171 0 92 0;
#X connect 172 0 176 0;
#X connect 173 0 177 0;
#X connect 174 0 173 0;
#X connect 176 0 159 0;
#X connect 176 1 147 0;
#X connect 176 2 178 0;
#X connect 177 0 175 0;
#X connect 178 0 174 0;
